<svg width="102" height="70" viewBox="0 0 102 70" fill="none" xmlns="http://www.w3.org/2000/svg">
<g clip-path="url(#clip0_11362_36313)">
<path d="M56.5915 69.4379C73.106 69.4379 86.4936 56.0503 86.4936 39.5358C86.4936 23.0214 73.106 9.63379 56.5915 9.63379C40.0771 9.63379 26.6895 23.0214 26.6895 39.5358C26.6895 56.0503 40.0771 69.4379 56.5915 69.4379Z" fill="#F7F5F4"/>
<path d="M100.83 34.538L83.0167 27.2275L71.4111 54.5976L89.2242 61.9081L100.83 34.538Z" fill="#DBCAC2"/>
<path d="M94.0478 60.6009L98.5868 43.9824L39.4941 43.9876L44.0317 60.6009C44.7228 63.1313 46.2266 65.3644 48.3115 66.9562C50.3964 68.548 52.9467 69.4104 55.5698 69.4104H82.5096C85.1327 69.4104 87.6831 68.548 89.768 66.9562C91.8529 65.3644 93.3567 63.1313 94.0478 60.6009Z" fill="#AA9C93"/>
<path d="M42.6836 55.6664L95.3969 55.6595M59.5089 69.4098L59.5121 43.9818C59.5121 38.5149 63.944 34.083 69.4109 34.083C74.8779 34.083 79.3098 38.5151 79.3098 43.9818M79.3065 69.4098L79.3098 43.9835" stroke="#534D48" stroke-width="0.3" stroke-miterlimit="10"/>
<path d="M52.3335 1.5H10.4706C5.51628 1.5 1.5 5.51628 1.5 10.4706C1.5 15.4249 5.51628 19.4412 10.4706 19.4412H52.3335C57.2878 19.4412 61.3041 15.4249 61.3041 10.4706C61.3041 5.51628 57.2878 1.5 52.3335 1.5Z" fill="white" stroke="#534D48" stroke-width="0.3" stroke-linejoin="round"/>
<path opacity="0.7" d="M10.7562 7.218H13.5372C14.0592 7.218 14.4672 7.365 14.7612 7.659C15.0612 7.953 15.2112 8.346 15.2112 8.838C15.2112 9.072 15.1782 9.273 15.1122 9.441C15.0462 9.603 14.9622 9.738 14.8602 9.846C14.7582 9.948 14.6412 10.026 14.5092 10.08C14.3772 10.128 14.2482 10.158 14.1222 10.17V10.224C14.2482 10.23 14.3862 10.26 14.5362 10.314C14.6922 10.368 14.8362 10.455 14.9682 10.575C15.1002 10.689 15.2112 10.839 15.3012 11.025C15.3912 11.205 15.4362 11.427 15.4362 11.691C15.4362 11.943 15.3942 12.18 15.3102 12.402C15.2322 12.624 15.1212 12.816 14.9772 12.978C14.8332 13.14 14.6622 13.269 14.4642 13.365C14.2662 13.455 14.0502 13.5 13.8162 13.5H10.7562V7.218ZM11.7732 12.627H13.5192C13.7832 12.627 13.9902 12.558 14.1402 12.42C14.2902 12.282 14.3652 12.084 14.3652 11.826V11.52C14.3652 11.262 14.2902 11.064 14.1402 10.926C13.9902 10.788 13.7832 10.719 13.5192 10.719H11.7732V12.627ZM11.7732 9.873H13.3482C13.6002 9.873 13.7952 9.81 13.9332 9.684C14.0712 9.552 14.1402 9.366 14.1402 9.126V8.838C14.1402 8.598 14.0712 8.415 13.9332 8.289C13.7952 8.157 13.6002 8.091 13.3482 8.091H11.7732V9.873ZM18.1438 8.82H19.1248V10.71H19.9528L20.7268 9.405C20.8588 9.183 20.9908 9.03 21.1228 8.946C21.2548 8.862 21.4228 8.82 21.6268 8.82H22.1038V9.621H21.5818L20.9878 10.611C20.8978 10.767 20.8168 10.875 20.7448 10.935C20.6788 10.995 20.5888 11.04 20.4748 11.07V11.106C20.5948 11.13 20.6998 11.175 20.7898 11.241C20.8798 11.301 20.9668 11.409 21.0508 11.565L21.6808 12.699H22.1938V13.5H21.6358C21.4378 13.5 21.2668 13.455 21.1228 13.365C20.9848 13.275 20.8528 13.116 20.7268 12.888L19.9528 11.502H19.1248V13.5H18.1438V8.82ZM24.672 13.608C24.348 13.608 24.051 13.551 23.781 13.437C23.517 13.323 23.292 13.161 23.106 12.951C22.92 12.735 22.776 12.477 22.674 12.177C22.572 11.871 22.521 11.532 22.521 11.16C22.521 10.788 22.572 10.452 22.674 10.152C22.776 9.846 22.92 9.588 23.106 9.378C23.292 9.162 23.517 8.997 23.781 8.883C24.051 8.769 24.348 8.712 24.672 8.712C24.996 8.712 25.29 8.769 25.554 8.883C25.824 8.997 26.052 9.162 26.238 9.378C26.424 9.588 26.568 9.846 26.67 10.152C26.772 10.452 26.823 10.788 26.823 11.16C26.823 11.532 26.772 11.871 26.67 12.177C26.568 12.477 26.424 12.735 26.238 12.951C26.052 13.161 25.824 13.323 25.554 13.437C25.29 13.551 24.996 13.608 24.672 13.608ZM24.672 12.798C25.008 12.798 25.278 12.696 25.482 12.492C25.686 12.282 25.788 11.97 25.788 11.556V10.764C25.788 10.35 25.686 10.041 25.482 9.837C25.278 9.627 25.008 9.522 24.672 9.522C24.336 9.522 24.066 9.627 23.862 9.837C23.658 10.041 23.556 10.35 23.556 10.764V11.556C23.556 11.97 23.658 12.282 23.862 12.492C24.066 12.696 24.336 12.798 24.672 12.798ZM27.6161 8.82H28.5971V9.594H28.6421C28.7441 9.312 28.9091 9.096 29.1371 8.946C29.3711 8.79 29.6441 8.712 29.9561 8.712C30.5501 8.712 31.0091 8.928 31.3331 9.36C31.6571 9.786 31.8191 10.386 31.8191 11.16C31.8191 11.934 31.6571 12.537 31.3331 12.969C31.0091 13.395 30.5501 13.608 29.9561 13.608C29.6441 13.608 29.3711 13.53 29.1371 13.374C28.9091 13.218 28.7441 13.002 28.6421 12.726H28.5971V15.3H27.6161V8.82ZM29.6591 12.762C30.0011 12.762 30.2741 12.654 30.4781 12.438C30.6821 12.216 30.7841 11.925 30.7841 11.565V10.755C30.7841 10.395 30.6821 10.107 30.4781 9.891C30.2741 9.669 30.0011 9.558 29.6591 9.558C29.3591 9.558 29.1071 9.633 28.9031 9.783C28.6991 9.927 28.5971 10.119 28.5971 10.359V11.961C28.5971 12.201 28.6991 12.396 28.9031 12.546C29.1071 12.69 29.3591 12.762 29.6591 12.762ZM34.0739 13.608C33.6059 13.608 33.2219 13.53 32.9219 13.374C32.6219 13.218 32.3639 12.996 32.1479 12.708L32.7869 12.123C32.9309 12.333 33.1079 12.498 33.3179 12.618C33.5339 12.738 33.7859 12.798 34.0739 12.798C34.4099 12.798 34.6559 12.738 34.8119 12.618C34.9739 12.498 35.0549 12.342 35.0549 12.15V12.042C35.0549 11.85 34.9889 11.706 34.8569 11.61C34.7309 11.508 34.5479 11.457 34.3079 11.457H33.2999V10.737H34.2089C34.4489 10.737 34.6319 10.692 34.7579 10.602C34.8899 10.506 34.9559 10.368 34.9559 10.188V10.089C34.9559 9.915 34.8839 9.777 34.7399 9.675C34.5959 9.573 34.3679 9.522 34.0559 9.522C33.7739 9.522 33.5339 9.579 33.3359 9.693C33.1379 9.807 32.9789 9.96 32.8589 10.152L32.2469 9.621C32.4269 9.345 32.6669 9.126 32.9669 8.964C33.2729 8.796 33.6569 8.712 34.1189 8.712C34.7429 8.712 35.2049 8.829 35.5049 9.063C35.8109 9.291 35.9639 9.597 35.9639 9.981C35.9639 10.281 35.8859 10.515 35.7299 10.683C35.5739 10.845 35.3399 10.956 35.0279 11.016V11.061C35.3699 11.103 35.6279 11.217 35.8019 11.403C35.9819 11.589 36.0719 11.829 36.0719 12.123C36.0719 12.585 35.8919 12.948 35.5319 13.212C35.1779 13.476 34.6919 13.608 34.0739 13.608ZM36.9389 8.82H37.9019V11.106L37.8119 12.213H37.8479L38.4059 11.214L40.0259 8.82H40.9169V13.5H39.9539V11.214L40.0439 10.107H40.0079L39.4499 11.106L37.8299 13.5H36.9389V8.82ZM42.0178 8.82H42.9988V10.701H45.0148V8.82H45.9958V13.5H45.0148V11.502H42.9988V13.5H42.0178V8.82ZM49.9677 8.82H50.9127L48.9417 14.427C48.8877 14.583 48.8247 14.715 48.7527 14.823C48.6867 14.937 48.6057 15.027 48.5097 15.093C48.4197 15.165 48.3087 15.216 48.1767 15.246C48.0447 15.282 47.8887 15.3 47.7087 15.3H47.1417V14.499H47.9337L48.2037 13.707L46.5027 8.82H47.4837L48.4197 11.574L48.6897 12.591H48.7347L49.0317 11.574L49.9677 8.82Z" fill="#553826"/>
<path d="M43.8004 48.0366C45.0365 48.088 48.8897 48.3012 51.7452 50.7497C52.2226 51.159 53.3452 52.1412 53.1058 52.8976C52.8121 53.8258 50.6321 53.9341 49.7641 53.9201C46.9736 53.8753 38.2663 52.426 26.5889 49.939C30.2648 49.0804 37.0122 47.7548 43.8004 48.0366Z" fill="#534D48" stroke="#534D48" stroke-width="0.358845" stroke-linecap="round" stroke-linejoin="round"/>
<path d="M51.6967 49.3318C50.2384 53.527 48.5524 57.6397 46.6463 61.6514L30.2202 54.8665C29.8108 54.329 22.7696 44.844 26.6764 37.0715C27.2045 36.0215 28.0483 34.7683 29.4546 33.5494C29.4859 32.7087 29.4984 31.9337 29.4984 31.2242C29.5078 27.9365 29.314 17.642 31.3643 16.0825C32.1956 15.445 32.9801 15.5013 32.9801 15.5013C32.9801 15.5013 33.6926 15.5513 34.3707 16.1763C36.5584 18.1858 36.2928 28.1365 36.2928 28.1365C36.2709 28.9241 36.2522 29.8335 36.2397 30.8523C36.2773 30.7804 37.1522 29.096 38.9555 28.9928C40.5525 28.9022 41.5494 30.1335 41.6994 30.3242C42.2057 30.9742 42.3557 31.6711 42.4526 33.5557C42.462 33.715 42.4683 33.8807 42.4745 34.0525C42.5995 33.8744 43.3526 32.8462 44.4496 32.8618C45.3059 32.8775 45.8904 33.5213 46.2121 33.8744C46.9278 34.662 47.3247 35.7871 47.5341 36.9559C48.8498 37.6028 51.6654 39.231 52.622 42.2781C53.2717 44.3564 52.7811 46.2003 51.6967 49.3318Z" fill="#DBCAC2"/>
<path d="M29.4807 32.5887C29.4028 36.0078 29.0895 39.4174 28.543 42.7934M36.2922 38.9187C36.1967 35.1887 36.2127 32.0494 36.2576 29.6631M42.4501 38.4838C42.5338 36.842 42.5338 35.197 42.4501 33.5552M47.5985 41.9899C47.6719 41.3683 47.956 38.7602 47.4346 36.4792" stroke="#534D48" stroke-width="0.3" stroke-miterlimit="10"/>
<path d="M26.5098 67.7664L55.0139 69.3968C54.1934 63.8153 53.8684 59.9021 53.6013 57.3228C53.439 55.7604 53.2857 54.2073 53.1413 52.6634C53.1407 52.6747 53.1386 52.7084 53.1339 52.7437C53.1324 52.7727 53.1286 52.8015 53.1227 52.8299C53.1188 52.8532 53.1128 52.8761 53.1047 52.8982C52.8128 53.8246 50.6336 53.9342 49.7644 53.9202C46.9745 53.8759 38.2678 52.4272 26.5895 49.9404L26.5098 67.7664Z" fill="#EDE3DD"/>
<path d="M53.5561 56.8905C51.6361 58.0419 49.3821 58.5072 47.1631 58.2102L26.5645 55.4531" stroke="#534D48" stroke-width="0.3" stroke-miterlimit="10"/>
<path d="M51.7452 50.7502C52.2226 51.1595 53.3452 52.1417 53.1058 52.8981C52.8121 53.8263 50.6321 53.9346 49.7641 53.9206C46.9736 53.8758 38.2663 52.4265 26.5889 49.9395" stroke="#534D48" stroke-width="0.3" stroke-linecap="round" stroke-linejoin="round"/>
</g>
<defs>
<clipPath id="clip0_11362_36313">
<rect width="101" height="69" fill="white" transform="translate(0.5 0.5)"/>
</clipPath>
</defs>
</svg>
