<svg width="200" height="73" viewBox="0 0 200 73" fill="none" xmlns="http://www.w3.org/2000/svg">
<g clip-path="url(#clip0_37_1719)">
<mask id="mask0_37_1719" style="mask-type:luminance" maskUnits="userSpaceOnUse" x="136" y="0" width="64" height="65">
<path d="M200 0.740723H136.709V64.0319H200V0.740723Z" fill="white"/>
</mask>
<g mask="url(#mask0_37_1719)">
<path d="M139.19 64.0319H137.52C137.305 64.0319 137.099 63.9464 136.947 63.7942C136.794 63.6421 136.709 63.4357 136.709 63.2204C136.709 63.0052 136.794 62.7988 136.947 62.6467C137.099 62.4945 137.305 62.409 137.52 62.409H139.19C139.405 62.409 139.612 62.4945 139.763 62.6467C139.916 62.7988 140.001 63.0052 140.001 63.2204C140.001 63.4357 139.916 63.6421 139.763 63.7942C139.612 63.9464 139.405 64.0319 139.19 64.0319ZM199.189 62.409H192.855V60.5157C192.855 58.5769 191.277 56.9995 189.338 56.9995H187.391C187.13 55.0221 185.925 53.2902 184.116 52.3621C182.916 51.7469 182.17 50.5272 182.17 49.1788V28.1263H183.185C184.378 28.1263 185.349 27.1556 185.349 25.9625V23.142H188.561V36.5965C187.239 36.9543 186.262 38.1645 186.262 39.5989C186.262 41.314 187.658 42.7094 189.373 42.7094C191.087 42.7094 192.483 41.314 192.483 39.5989C192.483 38.1645 191.507 36.9543 190.184 36.5965V23.142H192.06C193.777 23.142 194.798 21.0769 193.732 19.7125C189.594 14.4135 186.905 8.09414 185.956 1.43774C185.929 1.24432 185.832 1.06733 185.685 0.93928C185.537 0.811233 185.348 0.740729 185.153 0.740723H173.509C173.313 0.74072 173.125 0.8112 172.977 0.939218C172.829 1.06724 172.733 1.2442 172.705 1.4376C171.756 8.09401 169.068 14.4134 164.929 19.7124C163.864 21.076 164.885 23.1419 166.602 23.1419H173.313V25.9625C173.313 27.1556 174.284 28.1263 175.477 28.1263H180.548V49.1789C180.548 51.1389 181.631 52.912 183.375 53.8062C184.639 54.4542 185.499 55.6365 185.747 56.9995H172.915C173.162 55.6365 174.022 54.4543 175.286 53.8062C177.03 52.9118 178.114 51.1387 178.114 49.1789V31.372C178.114 31.1568 178.029 30.9504 177.876 30.7983C177.724 30.6461 177.518 30.5606 177.303 30.5606C177.087 30.5606 176.88 30.6461 176.729 30.7983C176.577 30.9504 176.491 31.1568 176.491 31.372V49.1789C176.491 50.5272 175.746 51.7469 174.546 52.3622C172.736 53.2902 171.532 55.0221 171.271 56.9996H169.324C167.385 56.9996 165.807 58.5771 165.807 60.5159V62.4091H160.801C161.165 61.8447 161.358 61.1873 161.358 60.5159V51.5993C161.358 51.3841 161.272 51.1778 161.12 51.0256C160.968 50.8734 160.762 50.7879 160.546 50.7879H158.262C161.613 48.3342 164.944 48.9326 165.379 49.1563C165.55 49.2807 165.764 49.3328 165.974 49.3017C166.184 49.2705 166.373 49.1585 166.501 48.9896C166.629 48.8207 166.686 48.6083 166.66 48.3978C166.633 48.1874 166.525 47.9957 166.36 47.8638C165.336 47.055 160.105 46.4423 155.782 50.7881H155.378C156.504 46.6083 159.495 43.183 163.535 41.512C163.734 41.4297 163.892 41.2718 163.974 41.0731C164.056 40.8743 164.056 40.6509 163.974 40.452C163.893 40.2531 163.734 40.0951 163.536 40.0126C163.337 39.9302 163.113 39.9301 162.915 40.0123C158.673 41.7668 155.467 45.2538 154.055 49.5448V42.5563C155.829 42.1788 157.165 40.5902 157.165 38.6928C157.165 36.7983 155.638 33.1752 153.244 33.1752C150.784 33.1752 149.322 36.6287 149.322 38.6928C149.322 40.5902 150.658 42.1788 152.432 42.5563V49.545C151.02 45.2539 147.814 41.7669 143.572 40.0123C143.474 39.9716 143.368 39.9507 143.262 39.9507C143.155 39.9508 143.049 39.9718 142.951 40.0126C142.853 40.0534 142.763 40.1133 142.688 40.1886C142.613 40.264 142.553 40.3535 142.512 40.452C142.472 40.5505 142.451 40.656 142.451 40.7626C142.451 40.8691 142.472 40.9746 142.513 41.0731C142.553 41.1715 142.613 41.2609 142.689 41.3362C142.764 41.4115 142.854 41.4712 142.952 41.512C146.992 43.1831 149.983 46.6084 151.109 50.7881H150.705C146.382 46.4425 141.151 47.055 140.127 47.8638C139.961 47.9955 139.852 48.1874 139.825 48.3981C139.798 48.609 139.855 48.8219 139.984 48.9912C140.112 49.1605 140.302 49.2726 140.512 49.3035C140.722 49.3344 140.937 49.2816 141.108 49.1564C141.543 48.9326 144.874 48.3343 148.225 50.7879H145.941C145.725 50.7879 145.519 50.8734 145.367 51.0256C145.215 51.1778 145.129 51.3841 145.129 51.5993V60.5157C145.129 61.2127 145.334 61.8621 145.686 62.409H143.127C142.912 62.409 142.705 62.4945 142.553 62.6467C142.401 62.7988 142.315 63.0052 142.315 63.2204C142.315 63.4357 142.401 63.6421 142.553 63.7942C142.705 63.9464 142.912 64.0319 143.127 64.0319H199.189C199.404 64.0319 199.61 63.9464 199.762 63.7942C199.915 63.6421 200 63.4357 200 63.2204C200 63.0052 199.915 62.7988 199.762 62.6467C199.61 62.4945 199.404 62.409 199.189 62.409ZM190.86 39.5989C190.86 40.4191 190.193 41.0865 189.373 41.0865C188.553 41.0865 187.885 40.4191 187.885 39.5989C187.885 38.7787 188.553 38.1113 189.373 38.1113C190.193 38.1113 190.86 38.7787 190.86 39.5989ZM166.602 21.5191C166.188 21.5191 165.953 21.0376 166.208 20.7114C170.376 15.3745 173.134 9.04401 174.206 2.36357H184.455C185.528 9.04401 188.286 15.3745 192.454 20.7114C192.708 21.0376 192.474 21.5191 192.06 21.5191H166.602ZM175.477 26.5034C175.178 26.5034 174.936 26.2609 174.936 25.9625V23.142H183.726V25.9625C183.726 26.2609 183.484 26.5034 183.185 26.5034H175.477ZM150.944 38.6924C150.944 37.1898 152.199 34.7976 153.244 34.7976C154.682 34.7976 155.543 37.5551 155.543 38.6924C155.543 39.975 154.512 41.0185 153.244 41.0185C151.976 41.0185 150.944 39.9752 150.944 38.6924ZM159.735 60.5157C159.735 61.5597 158.886 62.409 157.842 62.409H148.646C147.601 62.409 146.752 61.5597 146.752 60.5157V52.4107H159.735V60.5157ZM191.232 62.409H167.43V60.5157C167.43 59.4717 168.279 58.6224 169.324 58.6224H189.338C190.382 58.6224 191.232 59.4717 191.232 60.5157V62.409Z" fill="#F3E6DE"/>
<path d="M158.077 25.5926H150.232C150.017 25.5926 149.811 25.5071 149.659 25.3549C149.506 25.2028 149.421 24.9964 149.421 24.7812V16.9374C149.421 16.7222 149.506 16.5158 149.659 16.3636C149.811 16.2114 150.017 16.1259 150.232 16.1259H158.077C158.292 16.1259 158.498 16.2114 158.65 16.3636C158.803 16.5158 158.888 16.7222 158.888 16.9374V24.7812C158.888 24.9964 158.803 25.2028 158.65 25.3549C158.498 25.5071 158.292 25.5926 158.077 25.5926ZM151.044 23.9697H157.265V17.7488H151.044V23.9697ZM147.392 12.1719H140.901C140.686 12.1719 140.48 12.0864 140.327 11.9342C140.175 11.7821 140.09 11.5757 140.09 11.3604V4.86904C140.09 4.65384 140.175 4.44745 140.327 4.29528C140.48 4.1431 140.686 4.05762 140.901 4.05762H147.392C147.608 4.05762 147.814 4.1431 147.966 4.29528C148.118 4.44745 148.204 4.65384 148.204 4.86904V11.3604C148.204 11.5757 148.118 11.7821 147.966 11.9342C147.814 12.0864 147.608 12.1719 147.392 12.1719ZM141.713 10.549H146.581V5.68047H141.713V10.549Z" fill="#F2B441"/>
</g>
<path d="M3.12132 36.3658C2.69601 36.3658 2.36942 36.2443 2.14158 36.0013C1.91373 35.7582 1.7998 35.4241 1.7998 34.9987V21.3051C1.7998 20.8646 1.92132 20.5304 2.16436 20.3025C2.4074 20.0595 2.74158 19.938 3.16689 19.938C3.54664 19.938 3.84284 20.0139 4.0555 20.1658C4.28335 20.3025 4.48841 20.5456 4.67069 20.8949L10.2985 31.3076H9.56942L15.1973 20.8949C15.3796 20.5456 15.577 20.3025 15.7897 20.1658C16.0023 20.0139 16.2985 19.938 16.6783 19.938C17.1036 19.938 17.4302 20.0595 17.658 20.3025C17.8859 20.5304 17.9998 20.8646 17.9998 21.3051V34.9987C17.9998 35.4241 17.8859 35.7582 17.658 36.0013C17.4454 36.2443 17.1188 36.3658 16.6783 36.3658C16.253 36.3658 15.9264 36.2443 15.6985 36.0013C15.4707 35.7582 15.3568 35.4241 15.3568 34.9987V24.4494H15.858L11.0732 33.176C10.9213 33.4342 10.7618 33.6241 10.5947 33.7456C10.4277 33.8671 10.1998 33.9279 9.9112 33.9279C9.62259 33.9279 9.38715 33.8671 9.20487 33.7456C9.02259 33.6089 8.8631 33.419 8.72639 33.176L3.89601 24.4266H4.44284V34.9987C4.44284 35.4241 4.32892 35.7582 4.10107 36.0013C3.88841 36.2443 3.56183 36.3658 3.12132 36.3658ZM25.0896 36.4114C24.2845 36.4114 23.563 36.2595 22.9251 35.9557C22.3023 35.6367 21.8086 35.2114 21.444 34.6798C21.0947 34.1481 20.92 33.5481 20.92 32.8798C20.92 32.0595 21.1327 31.4139 21.558 30.9431C21.9833 30.457 22.6744 30.1076 23.6314 29.8949C24.5883 29.6823 25.8719 29.576 27.482 29.576H28.6213V31.2165H27.5048C26.563 31.2165 25.8111 31.262 25.2491 31.3532C24.6871 31.4443 24.2845 31.6038 24.0415 31.8317C23.8137 32.0443 23.6997 32.3481 23.6997 32.7431C23.6997 33.2443 23.8744 33.6544 24.2238 33.9734C24.5732 34.2924 25.0592 34.4519 25.682 34.4519C26.1833 34.4519 26.6238 34.338 27.0035 34.1101C27.3985 33.8671 27.7099 33.5405 27.9377 33.1304C28.1656 32.7203 28.2795 32.2494 28.2795 31.7177V29.0975C28.2795 28.338 28.1124 27.7912 27.7782 27.457C27.444 27.1228 26.882 26.9557 26.0921 26.9557C25.6516 26.9557 25.1732 27.0089 24.6567 27.1152C24.1554 27.2215 23.6238 27.4038 23.0618 27.662C22.7732 27.7987 22.5149 27.8367 22.2871 27.776C22.0744 27.7152 21.9073 27.5937 21.7858 27.4114C21.6643 27.2139 21.6035 27.0013 21.6035 26.7734C21.6035 26.5456 21.6643 26.3253 21.7858 26.1127C21.9073 25.8848 22.1124 25.7177 22.401 25.6114C23.0997 25.3228 23.7681 25.1177 24.4061 24.9962C25.0592 24.8747 25.6516 24.8139 26.1833 24.8139C27.277 24.8139 28.1732 24.981 28.8719 25.3152C29.5858 25.6494 30.1175 26.1582 30.4668 26.8418C30.8162 27.5101 30.9909 28.376 30.9909 29.4393V34.9076C30.9909 35.3785 30.877 35.7431 30.6491 36.0013C30.4213 36.2443 30.0947 36.3658 29.6694 36.3658C29.244 36.3658 28.9099 36.2443 28.6668 36.0013C28.439 35.7431 28.3251 35.3785 28.3251 34.9076V33.8139H28.5073C28.401 34.3456 28.1883 34.8089 27.8694 35.2038C27.5656 35.5836 27.1782 35.8798 26.7073 36.0924C26.2364 36.3051 25.6972 36.4114 25.0896 36.4114ZM39.3426 36.4114C38.173 36.4114 37.1552 36.176 36.2894 35.7051C35.4236 35.219 34.7552 34.5355 34.2844 33.6544C33.8135 32.7734 33.578 31.7405 33.578 30.5557C33.578 29.6595 33.7071 28.862 33.9654 28.1633C34.2388 27.4494 34.6261 26.8494 35.1274 26.3633C35.6287 25.862 36.2363 25.4823 36.9502 25.2241C37.6641 24.9506 38.4616 24.8139 39.3426 24.8139C39.8439 24.8139 40.3831 24.8823 40.9603 25.019C41.5527 25.1557 42.1071 25.3836 42.6236 25.7025C42.8666 25.8544 43.0261 26.0367 43.1021 26.2494C43.178 26.462 43.1932 26.6823 43.1477 26.9101C43.1021 27.1228 43.0033 27.3127 42.8514 27.4798C42.7147 27.6317 42.5401 27.7304 42.3274 27.776C42.1147 27.8063 41.8793 27.7532 41.6211 27.6165C41.2869 27.419 40.9451 27.2747 40.5958 27.1836C40.2464 27.0772 39.9122 27.0241 39.5932 27.0241C39.092 27.0241 38.6514 27.1076 38.2717 27.2747C37.892 27.4266 37.5654 27.6544 37.292 27.9582C37.0337 28.2469 36.8363 28.6114 36.6996 29.0519C36.5628 29.4924 36.4945 30.0013 36.4945 30.5785C36.4945 31.7025 36.7603 32.5912 37.292 33.2443C37.8388 33.8823 38.6059 34.2013 39.5932 34.2013C39.9122 34.2013 40.2388 34.1557 40.573 34.0646C40.9223 33.9734 41.2717 33.8291 41.6211 33.6317C41.8793 33.495 42.1071 33.4494 42.3046 33.495C42.5173 33.5405 42.692 33.6468 42.8287 33.8139C42.9654 33.9658 43.0489 34.1557 43.0793 34.3836C43.1097 34.5962 43.0793 34.8089 42.9882 35.0215C42.9122 35.2342 42.7603 35.4089 42.5325 35.5456C42.0312 35.8494 41.4995 36.0696 40.9375 36.2063C40.3755 36.3431 39.8439 36.4114 39.3426 36.4114ZM49.0336 36.3658C48.5779 36.3658 48.2209 36.2443 47.9627 36.0013C47.7197 35.7431 47.5982 35.3785 47.5982 34.9076V27.2747H44.8184C43.9982 27.2747 43.588 26.9025 43.588 26.1582C43.588 25.8089 43.6944 25.5355 43.907 25.338C44.1349 25.1405 44.4387 25.0418 44.8184 25.0418H53.226C54.0463 25.0418 54.4564 25.4139 54.4564 26.1582C54.4564 26.5228 54.3501 26.8038 54.1374 27.0013C53.9247 27.1836 53.6209 27.2747 53.226 27.2747H50.4463V34.9076C50.4463 35.3785 50.3247 35.7431 50.0817 36.0013C49.8539 36.2443 49.5045 36.3658 49.0336 36.3658ZM61.4234 36.4114C60.1627 36.4114 59.0766 36.176 58.1652 35.7051C57.2538 35.2342 56.5475 34.5658 56.0462 33.7C55.5601 32.8342 55.3171 31.8089 55.3171 30.6241C55.3171 29.4696 55.5525 28.4595 56.0234 27.5937C56.5095 26.7279 57.1702 26.0519 58.0057 25.5658C58.8563 25.0646 59.8209 24.8139 60.8994 24.8139C61.6892 24.8139 62.3956 24.9431 63.0183 25.2013C63.6561 25.4595 64.1954 25.8317 64.6359 26.3177C65.0916 26.8038 65.4333 27.3962 65.6612 28.095C65.9042 28.7785 66.0257 29.5532 66.0257 30.419C66.0257 30.6924 65.927 30.9051 65.7295 31.057C65.5473 31.1937 65.2814 31.262 64.9321 31.262H57.6183V29.6215H64.0207L63.6561 29.9633C63.6561 29.2646 63.5498 28.6798 63.3371 28.2089C63.1399 27.738 62.8437 27.381 62.4487 27.138C62.069 26.8798 61.5905 26.7506 61.0133 26.7506C60.3753 26.7506 59.8285 26.9025 59.3728 27.2063C58.9323 27.495 58.5905 27.9127 58.3475 28.4595C58.1196 28.9912 58.0057 29.6291 58.0057 30.3734V30.5329C58.0057 31.7785 58.2943 32.7127 58.8715 33.3355C59.4639 33.9431 60.3297 34.2468 61.469 34.2468C61.8639 34.2468 62.3044 34.2013 62.7905 34.1101C63.2916 34.0038 63.7625 33.8291 64.203 33.5861C64.522 33.4038 64.803 33.3279 65.046 33.3582C65.289 33.3734 65.4789 33.457 65.6156 33.6089C65.7675 33.7608 65.8587 33.9506 65.889 34.1785C65.9194 34.3912 65.8739 34.6114 65.7523 34.8393C65.646 35.0671 65.4561 35.2646 65.1827 35.4317C64.6511 35.7658 64.0359 36.0165 63.3371 36.1836C62.6538 36.3355 62.0158 36.4114 61.4234 36.4114ZM70.0055 40.4671C69.5498 40.4671 69.2004 40.3456 68.9574 40.1025C68.7144 39.8595 68.5928 39.5025 68.5928 39.0317V26.295C68.5928 25.8241 68.7144 25.4671 68.9574 25.2241C69.2004 24.981 69.5422 24.8595 69.9827 24.8595C70.4384 24.8595 70.7878 24.981 71.0308 25.2241C71.2738 25.4671 71.3954 25.8241 71.3954 26.295V28.0722L71.1447 27.3886C71.3726 26.6139 71.8359 25.9912 72.5346 25.5203C73.2485 25.0494 74.0764 24.8139 75.0182 24.8139C75.9903 24.8139 76.8409 25.0494 77.5701 25.5203C78.3144 25.9912 78.8916 26.6595 79.3017 27.5253C79.7118 28.376 79.9169 29.4013 79.9169 30.6013C79.9169 31.7861 79.7118 32.819 79.3017 33.7C78.8916 34.5658 78.322 35.2342 77.5928 35.7051C76.8637 36.176 76.0055 36.4114 75.0182 36.4114C74.0916 36.4114 73.2789 36.1836 72.5802 35.7279C71.8814 35.257 71.4106 34.6494 71.1675 33.9051H71.4409V39.0317C71.4409 39.5025 71.3118 39.8595 71.0536 40.1025C70.8106 40.3456 70.4612 40.4671 70.0055 40.4671ZM74.2207 34.2468C74.7827 34.2468 75.2764 34.1101 75.7017 33.8367C76.127 33.5633 76.4536 33.1608 76.6814 32.6291C76.9245 32.0823 77.046 31.4063 77.046 30.6013C77.046 29.3861 76.7878 28.4823 76.2713 27.8899C75.7549 27.2823 75.0713 26.9785 74.2207 26.9785C73.6587 26.9785 73.165 27.1152 72.7397 27.3886C72.3144 27.6468 71.9802 28.0494 71.7371 28.5962C71.5093 29.1279 71.3954 29.7962 71.3954 30.6013C71.3954 31.8013 71.6536 32.7127 72.1701 33.3355C72.6865 33.9431 73.3701 34.2468 74.2207 34.2468ZM87.7378 36.4114C86.5682 36.4114 85.5504 36.176 84.6846 35.7051C83.8188 35.219 83.1504 34.5355 82.6796 33.6544C82.2087 32.7734 81.9732 31.7405 81.9732 30.5557C81.9732 29.6595 82.1023 28.862 82.3606 28.1633C82.634 27.4494 83.0213 26.8494 83.5226 26.3633C84.0239 25.862 84.6314 25.4823 85.3454 25.2241C86.0593 24.9506 86.8568 24.8139 87.7378 24.8139C88.2391 24.8139 88.7783 24.8823 89.3555 25.019C89.9479 25.1557 90.5023 25.3836 91.0188 25.7025C91.2618 25.8544 91.4213 26.0367 91.4973 26.2494C91.5732 26.462 91.5884 26.6823 91.5428 26.9101C91.4973 27.1228 91.3985 27.3127 91.2466 27.4798C91.1099 27.6317 90.9352 27.7304 90.7226 27.776C90.5099 27.8063 90.2745 27.7532 90.0163 27.6165C89.6821 27.419 89.3403 27.2747 88.991 27.1836C88.6416 27.0772 88.3074 27.0241 87.9884 27.0241C87.4872 27.0241 87.0466 27.1076 86.6669 27.2747C86.2872 27.4266 85.9606 27.6544 85.6871 27.9582C85.4289 28.2469 85.2315 28.6114 85.0947 29.0519C84.958 29.4924 84.8897 30.0013 84.8897 30.5785C84.8897 31.7025 85.1555 32.5912 85.6871 33.2443C86.234 33.8823 87.0011 34.2013 87.9884 34.2013C88.3074 34.2013 88.634 34.1557 88.9682 34.0646C89.3175 33.9734 89.6669 33.8291 90.0163 33.6317C90.2745 33.495 90.5023 33.4494 90.6998 33.495C90.9125 33.5405 91.0872 33.6468 91.2239 33.8139C91.3606 33.9658 91.4441 34.1557 91.4745 34.3836C91.5049 34.5962 91.4745 34.8089 91.3834 35.0215C91.3074 35.2342 91.1555 35.4089 90.9277 35.5456C90.4264 35.8494 89.8947 36.0696 89.3327 36.2063C88.7707 36.3431 88.2391 36.4114 87.7378 36.4114ZM95.0821 36.3658C94.6264 36.3658 94.2694 36.2443 94.0112 36.0013C93.7682 35.7431 93.6466 35.3785 93.6466 34.9076V26.3405C93.6466 25.8696 93.7682 25.5127 94.0112 25.2696C94.2694 25.0114 94.6264 24.8823 95.0821 24.8823C95.5378 24.8823 95.8872 25.0114 96.1302 25.2696C96.3732 25.5127 96.4948 25.8696 96.4948 26.3405V29.3709H98.1125L100.961 25.5431C101.173 25.2544 101.416 25.0722 101.69 24.9962C101.963 24.9051 102.221 24.8975 102.464 24.9734C102.723 25.0494 102.928 25.1861 103.08 25.3836C103.247 25.581 103.33 25.8165 103.33 26.0899C103.345 26.3481 103.247 26.6215 103.034 26.9101L100.323 30.6241L99.7074 29.7127C100.118 29.7582 100.482 29.8722 100.801 30.0544C101.135 30.2367 101.439 30.495 101.712 30.8291C102.001 31.1481 102.282 31.5506 102.555 32.0367L103.9 34.4291C104.082 34.7481 104.143 35.0443 104.082 35.3177C104.037 35.576 103.907 35.7962 103.695 35.9785C103.497 36.1608 103.262 36.2747 102.988 36.3203C102.715 36.3658 102.442 36.3279 102.168 36.2063C101.91 36.1 101.69 35.8874 101.507 35.5684L99.9808 32.9025C99.7834 32.5532 99.5859 32.2874 99.3884 32.1051C99.2061 31.9076 98.9935 31.7709 98.7504 31.695C98.5226 31.619 98.2416 31.581 97.9074 31.581H96.4948V34.9076C96.4948 35.3785 96.3732 35.7431 96.1302 36.0013C95.8872 36.2443 95.5378 36.3658 95.0821 36.3658ZM110.066 36.4114C109.261 36.4114 108.539 36.2595 107.901 35.9557C107.278 35.6367 106.785 35.2114 106.42 34.6798C106.071 34.1481 105.896 33.5481 105.896 32.8798C105.896 32.0595 106.109 31.4139 106.534 30.9431C106.959 30.457 107.65 30.1076 108.607 29.8949C109.564 29.6823 110.848 29.576 112.458 29.576H113.597V31.2165H112.481C111.539 31.2165 110.787 31.262 110.225 31.3532C109.663 31.4443 109.261 31.6038 109.018 31.8317C108.79 32.0443 108.676 32.3481 108.676 32.7431C108.676 33.2443 108.85 33.6544 109.2 33.9734C109.549 34.2924 110.035 34.4519 110.658 34.4519C111.159 34.4519 111.6 34.338 111.98 34.1101C112.374 33.8671 112.686 33.5405 112.914 33.1304C113.142 32.7203 113.256 32.2494 113.256 31.7177V29.0975C113.256 28.338 113.088 27.7912 112.754 27.457C112.42 27.1228 111.858 26.9557 111.068 26.9557C110.628 26.9557 110.149 27.0089 109.633 27.1152C109.131 27.2215 108.6 27.4038 108.038 27.662C107.749 27.7987 107.491 27.8367 107.263 27.776C107.05 27.7152 106.883 27.5937 106.762 27.4114C106.64 27.2139 106.58 27.0013 106.58 26.7734C106.58 26.5456 106.64 26.3253 106.762 26.1127C106.883 25.8848 107.088 25.7177 107.377 25.6114C108.076 25.3228 108.744 25.1177 109.382 24.9962C110.035 24.8747 110.628 24.8139 111.159 24.8139C112.253 24.8139 113.149 24.981 113.848 25.3152C114.562 25.6494 115.093 26.1582 115.443 26.8418C115.792 27.5101 115.967 28.376 115.967 29.4393V34.9076C115.967 35.3785 115.853 35.7431 115.625 36.0013C115.397 36.2443 115.071 36.3658 114.645 36.3658C114.22 36.3658 113.886 36.2443 113.643 36.0013C113.415 35.7431 113.301 35.3785 113.301 34.9076V33.8139H113.483C113.377 34.3456 113.164 34.8089 112.845 35.2038C112.542 35.5836 112.154 35.8798 111.683 36.0924C111.212 36.3051 110.673 36.4114 110.066 36.4114ZM127.371 36.3658C126.946 36.3658 126.619 36.2519 126.392 36.0241C126.164 35.781 126.05 35.4469 126.05 35.0215V32.3329H124.865C124.424 32.3329 124.03 32.4544 123.68 32.6975C123.346 32.9405 123.073 33.2443 122.86 33.6089L121.743 35.5684C121.546 35.9177 121.303 36.1456 121.014 36.2519C120.741 36.3734 120.46 36.3962 120.171 36.3203C119.898 36.2443 119.662 36.1076 119.465 35.9101C119.268 35.6975 119.138 35.4469 119.078 35.1582C119.032 34.8696 119.108 34.5658 119.306 34.2468L120.012 33.062C120.24 32.6671 120.566 32.3253 120.992 32.0367C121.417 31.7481 121.857 31.6038 122.313 31.6038H122.769V31.8544C121.462 31.8544 120.46 31.5658 119.761 30.9886C119.062 30.4114 118.713 29.5836 118.713 28.5051C118.713 27.7912 118.873 27.176 119.192 26.6595C119.526 26.1431 120.012 25.7481 120.65 25.4747C121.288 25.1861 122.078 25.0418 123.019 25.0418H127.257C127.713 25.0418 128.062 25.1633 128.306 25.4063C128.564 25.6494 128.693 25.9987 128.693 26.4544V35.0215C128.693 35.4469 128.571 35.781 128.328 36.0241C128.085 36.2519 127.766 36.3658 127.371 36.3658ZM123.612 30.4646H126.05V26.9101H123.612C122.868 26.9101 122.313 27.0696 121.949 27.3886C121.584 27.6924 121.402 28.1177 121.402 28.6646C121.402 29.2266 121.584 29.6671 121.949 29.9861C122.313 30.3051 122.868 30.4646 123.612 30.4646Z" fill="#F3E6DE"/>
<path d="M2.98526 64.214C2.78779 64.214 2.61311 64.1836 2.46121 64.1228C2.30931 64.0621 2.1802 63.9709 2.07387 63.8494C1.96754 63.7127 1.884 63.5532 1.82324 63.3709C1.77767 63.1887 1.75488 62.976 1.75488 62.733V49.176C1.75488 48.7355 1.86881 48.3937 2.09665 48.1507C2.33969 47.9076 2.68147 47.7861 3.12197 47.7861C3.56248 47.7861 3.89665 47.9076 4.1245 48.1507C4.35235 48.3937 4.46628 48.7355 4.46628 49.176V59.9532H3.94222L12.6005 48.6292C12.8283 48.3254 13.0486 48.1127 13.2612 47.9912C13.4739 47.8545 13.7549 47.7861 14.1042 47.7861C14.3473 47.7861 14.5524 47.8393 14.7194 47.9456C14.9017 48.052 15.0384 48.2114 15.1296 48.4241C15.2359 48.6216 15.2891 48.857 15.2891 49.1304V62.8013C15.2891 63.257 15.1751 63.6064 14.9473 63.8494C14.7194 64.0925 14.3853 64.214 13.9448 64.214C13.5042 64.214 13.1625 64.0925 12.9194 63.8494C12.6916 63.6064 12.5777 63.257 12.5777 62.8013V52.0241H13.0789L4.44349 63.3482C4.20045 63.652 3.9802 63.8722 3.78273 64.0089C3.60045 64.1456 3.33463 64.214 2.98526 64.214ZM20.0977 64.214C19.642 64.214 19.2851 64.0925 19.0268 63.8494C18.7838 63.5912 18.6623 63.2266 18.6623 62.7558V54.1431C18.6623 53.657 18.7838 53.3001 19.0268 53.0722C19.2851 52.8292 19.642 52.7077 20.0977 52.7077C20.5534 52.7077 20.9028 52.8292 21.1458 53.0722C21.3889 53.3001 21.5104 53.657 21.5104 54.1431V57.1963H26.4319V54.1431C26.4319 53.657 26.5534 53.3001 26.7965 53.0722C27.0395 52.8292 27.3889 52.7077 27.8446 52.7077C28.3003 52.7077 28.6496 52.8292 28.8927 53.0722C29.1509 53.3001 29.28 53.657 29.28 54.1431V62.7558C29.28 63.2266 29.1509 63.5912 28.8927 63.8494C28.6496 64.0925 28.3003 64.214 27.8446 64.214C27.3889 64.214 27.0395 64.0925 26.7965 63.8494C26.5534 63.5912 26.4319 63.2266 26.4319 62.7558V59.4292H21.5104V62.7558C21.5104 63.2266 21.3889 63.5912 21.1458 63.8494C20.918 64.0925 20.5686 64.214 20.0977 64.214ZM36.3068 64.214C35.8511 64.214 35.4941 64.0925 35.2359 63.8494C34.9929 63.5912 34.8713 63.2266 34.8713 62.7558V55.1228H32.0916C31.2713 55.1228 30.8612 54.7507 30.8612 54.0064C30.8612 53.657 30.9675 53.3836 31.1802 53.1861C31.408 52.9887 31.7118 52.8899 32.0916 52.8899H40.4992C41.3194 52.8899 41.7296 53.2621 41.7296 54.0064C41.7296 54.3709 41.6232 54.652 41.4106 54.8494C41.1979 55.0317 40.8941 55.1228 40.4992 55.1228H37.7194V62.7558C37.7194 63.2266 37.5979 63.5912 37.3549 63.8494C37.127 64.0925 36.7777 64.214 36.3068 64.214ZM48.6966 64.2596C47.4358 64.2596 46.3498 64.0241 45.4384 63.5532C44.527 63.0823 43.8206 62.414 43.3194 61.5482C42.8333 60.6823 42.5903 59.657 42.5903 58.4722C42.5903 57.3178 42.8257 56.3077 43.2966 55.4418C43.7827 54.576 44.4434 53.9001 45.2789 53.414C46.1295 52.9127 47.0941 52.6621 48.1725 52.6621C48.9624 52.6621 49.6687 52.7912 50.2915 53.0494C50.9295 53.3077 51.4687 53.6798 51.9092 54.1659C52.3649 54.652 52.7067 55.2444 52.9346 55.9431C53.1776 56.6266 53.2991 57.4013 53.2991 58.2671C53.2991 58.5406 53.2004 58.7532 53.0029 58.9051C52.8206 59.0418 52.5548 59.1102 52.2055 59.1102H44.8915V57.4697H51.2941L50.9295 57.8114C50.9295 57.1127 50.8232 56.5279 50.6105 56.057C50.413 55.5861 50.1168 55.2292 49.7219 54.9861C49.3422 54.7279 48.8637 54.5988 48.2865 54.5988C47.6485 54.5988 47.1017 54.7507 46.646 55.0545C46.2054 55.3431 45.8637 55.7608 45.6206 56.3076C45.3928 56.8393 45.2789 57.4773 45.2789 58.2216V58.3811C45.2789 59.6266 45.5675 60.5608 46.1447 61.1836C46.7371 61.7912 47.6029 62.095 48.7422 62.095C49.1371 62.095 49.5776 62.0494 50.0637 61.9583C50.5649 61.852 51.0358 61.6773 51.4763 61.4342C51.7953 61.252 52.0763 61.176 52.3194 61.2064C52.5624 61.2216 52.7523 61.3051 52.889 61.457C53.0409 61.6089 53.132 61.7988 53.1624 62.0266C53.1928 62.2393 53.1472 62.4595 53.0257 62.6874C52.9194 62.9152 52.7295 63.1127 52.4561 63.2798C51.9244 63.614 51.3092 63.8646 50.6105 64.0317C49.927 64.1836 49.289 64.2596 48.6966 64.2596ZM57.2788 68.3152C56.8231 68.3152 56.4737 68.1937 56.2307 67.9507C55.9877 67.7077 55.8661 67.3507 55.8661 66.8798V54.1431C55.8661 53.6722 55.9877 53.3152 56.2307 53.0722C56.4737 52.8292 56.8155 52.7077 57.256 52.7077C57.7117 52.7077 58.0611 52.8292 58.3041 53.0722C58.5472 53.3152 58.6687 53.6722 58.6687 54.1431V55.9203L58.418 55.2368C58.6459 54.4621 59.1092 53.8393 59.8079 53.3684C60.5218 52.8975 61.3497 52.6621 62.2915 52.6621C63.2636 52.6621 64.1144 52.8975 64.8435 53.3684C65.5878 53.8393 66.165 54.5077 66.5751 55.3735C66.9853 56.2241 67.1903 57.2494 67.1903 58.4494C67.1903 59.6342 66.9853 60.6671 66.5751 61.5482C66.165 62.414 65.5954 63.0823 64.8663 63.5532C64.1372 64.0241 63.2788 64.2596 62.2915 64.2596C61.3649 64.2596 60.5522 64.0317 59.8535 63.576C59.1548 63.1051 58.6839 62.4975 58.4408 61.7532H58.7142V66.8798C58.7142 67.3507 58.5851 67.7077 58.3269 67.9507C58.0839 68.1937 57.7345 68.3152 57.2788 68.3152ZM61.494 62.095C62.056 62.095 62.5497 61.9583 62.975 61.6849C63.4005 61.4114 63.727 61.0089 63.9549 60.4773C64.1979 59.9304 64.3194 59.2545 64.3194 58.4494C64.3194 57.2342 64.0612 56.3304 63.5448 55.738C63.0282 55.1304 62.3446 54.8266 61.494 54.8266C60.932 54.8266 60.4383 54.9633 60.013 55.2368C59.5877 55.495 59.2535 55.8975 59.0105 56.4444C58.7826 56.976 58.6687 57.6444 58.6687 58.4494C58.6687 59.6494 58.9269 60.5608 59.4434 61.1836C59.9598 61.7912 60.6434 62.095 61.494 62.095ZM71.2517 64.0317C70.796 64.0317 70.4466 63.9102 70.2036 63.6671C69.9606 63.4241 69.8391 63.0747 69.8391 62.619V54.1431C69.8391 53.657 69.9606 53.3001 70.2036 53.0722C70.4618 52.8292 70.8188 52.7077 71.2745 52.7077C71.7302 52.7077 72.0796 52.8292 72.3226 53.0722C72.5656 53.3001 72.6872 53.657 72.6872 54.1431V56.5811H75.6264C77.0998 56.5811 78.2087 56.8925 78.953 57.5152C79.7125 58.138 80.0922 59.0494 80.0922 60.2494C80.0922 61.0089 79.9099 61.6773 79.5454 62.2545C79.1808 62.8165 78.6644 63.257 77.996 63.576C77.3429 63.8798 76.553 64.0317 75.6264 64.0317H71.2517ZM72.6872 62.1633H75.1935C75.9074 62.1633 76.4618 62.0115 76.8568 61.7077C77.2517 61.3887 77.4492 60.9102 77.4492 60.2722C77.4492 59.6494 77.2517 59.1937 76.8568 58.9051C76.4618 58.6013 75.9074 58.4494 75.1935 58.4494H72.6872V62.1633ZM87.9473 64.2596C86.6865 64.2596 85.6004 64.0241 84.6891 63.5532C83.7777 63.0823 83.0713 62.414 82.5701 61.5482C82.084 60.6823 81.841 59.657 81.841 58.4722C81.841 57.3178 82.0764 56.3077 82.5473 55.4418C83.0334 54.576 83.6941 53.9001 84.5296 53.414C85.3802 52.9127 86.3448 52.6621 87.4232 52.6621C88.2131 52.6621 88.9194 52.7912 89.5422 53.0494C90.1802 53.3077 90.7194 53.6798 91.1599 54.1659C91.6156 54.652 91.9574 55.2444 92.1853 55.9431C92.4283 56.6266 92.5498 57.4013 92.5498 58.2671C92.5498 58.5406 92.4511 58.7532 92.2536 58.9051C92.0713 59.0418 91.8055 59.1102 91.4561 59.1102H84.1422V57.4697H90.5448L90.1802 57.8114C90.1802 57.1127 90.0739 56.5279 89.8612 56.057C89.6637 55.5861 89.3675 55.2292 88.9726 54.9861C88.5929 54.7279 88.1144 54.5988 87.5372 54.5988C86.8992 54.5988 86.3523 54.7507 85.8967 55.0545C85.4561 55.3431 85.1144 55.7608 84.8713 56.3076C84.6435 56.8393 84.5296 57.4773 84.5296 58.2216V58.3811C84.5296 59.6266 84.8182 60.5608 85.3954 61.1836C85.9878 61.7912 86.8536 62.095 87.9929 62.095C88.3878 62.095 88.8283 62.0494 89.3144 61.9583C89.8156 61.852 90.2865 61.6773 90.727 61.4342C91.046 61.252 91.327 61.176 91.5701 61.2064C91.8131 61.2216 92.003 61.3051 92.1397 61.457C92.2916 61.6089 92.3827 61.7988 92.4131 62.0266C92.4435 62.2393 92.3979 62.4595 92.2764 62.6874C92.1701 62.9152 91.9802 63.1127 91.7068 63.2798C91.1751 63.614 90.5599 63.8646 89.8612 64.0317C89.1777 64.1836 88.5397 64.2596 87.9473 64.2596ZM96.5289 68.3152C96.0732 68.3152 95.7239 68.1937 95.4808 67.9507C95.2378 67.7077 95.1163 67.3507 95.1163 66.8798V54.1431C95.1163 53.6722 95.2378 53.3152 95.4808 53.0722C95.7239 52.8292 96.0656 52.7077 96.5061 52.7077C96.9618 52.7077 97.3112 52.8292 97.5542 53.0722C97.7973 53.3152 97.9188 53.6722 97.9188 54.1431V55.9203L97.6682 55.2368C97.896 54.4621 98.3593 53.8393 99.058 53.3684C99.772 52.8975 100.6 52.6621 101.542 52.6621C102.514 52.6621 103.364 52.8975 104.093 53.3684C104.838 53.8393 105.415 54.5077 105.825 55.3735C106.235 56.2241 106.44 57.2494 106.44 58.4494C106.44 59.6342 106.235 60.6671 105.825 61.5482C105.415 62.414 104.845 63.0823 104.116 63.5532C103.387 64.0241 102.529 64.2596 101.542 64.2596C100.615 64.2596 99.8023 64.0317 99.1036 63.576C98.4049 63.1051 97.934 62.4975 97.691 61.7532H97.9644V66.8798C97.9644 67.3507 97.8353 67.7077 97.577 67.9507C97.334 68.1937 96.9846 68.3152 96.5289 68.3152ZM100.744 62.095C101.306 62.095 101.8 61.9583 102.225 61.6849C102.65 61.4114 102.977 61.0089 103.205 60.4773C103.448 59.9304 103.569 59.2545 103.569 58.4494C103.569 57.2342 103.311 56.3304 102.795 55.738C102.278 55.1304 101.595 54.8266 100.744 54.8266C100.182 54.8266 99.6884 54.9633 99.2631 55.2368C98.8378 55.495 98.5036 55.8975 98.2606 56.4444C98.0327 56.976 97.9188 57.6444 97.9188 58.4494C97.9188 59.6494 98.177 60.5608 98.6935 61.1836C99.2099 61.7912 99.8935 62.095 100.744 62.095ZM112.781 64.2596C111.976 64.2596 111.254 64.1077 110.616 63.8039C109.993 63.4849 109.5 63.0596 109.135 62.5279C108.786 61.9963 108.611 61.3963 108.611 60.7279C108.611 59.9076 108.824 59.2621 109.249 58.7912C109.675 58.3051 110.366 57.9558 111.323 57.7431C112.28 57.5304 113.563 57.4241 115.173 57.4241H116.312V59.0646H115.196C114.254 59.0646 113.502 59.1102 112.94 59.2013C112.378 59.2925 111.976 59.452 111.733 59.6798C111.505 59.8925 111.391 60.1963 111.391 60.5912C111.391 61.0925 111.566 61.5026 111.915 61.8216C112.264 62.1406 112.75 62.3001 113.373 62.3001C113.874 62.3001 114.315 62.1861 114.695 61.9583C115.09 61.7152 115.401 61.3887 115.629 60.9785C115.857 60.5684 115.971 60.0975 115.971 59.5659V56.9456C115.971 56.1861 115.804 55.6393 115.469 55.3051C115.135 54.9709 114.573 54.8039 113.783 54.8039C113.343 54.8039 112.864 54.857 112.348 54.9633C111.847 55.0697 111.315 55.252 110.753 55.5102C110.464 55.6469 110.206 55.6849 109.978 55.6241C109.766 55.5633 109.599 55.4418 109.477 55.2595C109.356 55.0621 109.295 54.8494 109.295 54.6216C109.295 54.3937 109.356 54.1735 109.477 53.9608C109.599 53.733 109.804 53.5659 110.092 53.4595C110.791 53.1709 111.459 52.9659 112.097 52.8444C112.75 52.7228 113.343 52.6621 113.875 52.6621C114.968 52.6621 115.864 52.8292 116.563 53.1633C117.277 53.4975 117.809 54.0064 118.158 54.6899C118.507 55.3583 118.682 56.2241 118.682 57.2874V62.7558C118.682 63.2266 118.568 63.5912 118.34 63.8494C118.112 64.0925 117.786 64.214 117.361 64.214C116.935 64.214 116.601 64.0925 116.358 63.8494C116.13 63.5912 116.016 63.2266 116.016 62.7558V61.6621H116.199C116.092 62.1937 115.88 62.657 115.561 63.052C115.257 63.4317 114.869 63.7279 114.399 63.9406C113.928 64.1532 113.388 64.2596 112.781 64.2596Z" fill="#F3E6DE"/>
</g>
<defs>
<clipPath id="clip0_37_1719">
<rect width="200" height="71.519" fill="white" transform="translate(0 0.740723)"/>
</clipPath>
</defs>
</svg>
