<svg width="113" height="75" viewBox="0 0 113 75" fill="none" xmlns="http://www.w3.org/2000/svg">
<g clip-path="url(#clip0_11372_60278)">
<path d="M56.2361 71.3092C71.8526 71.3092 84.5123 58.6495 84.5123 43.033C84.5123 27.4165 71.8526 14.7568 56.2361 14.7568C40.6196 14.7568 27.96 27.4165 27.96 43.033C27.96 58.6495 40.6196 71.3092 56.2361 71.3092Z" fill="#F7F5F4"/>
<path d="M88.3745 50.7027C89.1926 50.7316 89.9975 50.9908 90.6363 51.5027C91.4426 52.1489 91.8955 53.0435 91.8368 53.856C91.7242 55.4149 89.7055 56.9921 87.3322 56.3819L66.0566 49.916L88.3745 50.7027Z" fill="#553826" stroke="#553826" stroke-width="0.339333" stroke-linecap="round" stroke-linejoin="round"/>
<path d="M112.455 41.0958C111.5 44.3968 97.7432 48.4751 97.7432 48.4751C89.1905 51.0137 85.7092 51.3595 83.1469 51.4511C81.5836 51.5072 80.1946 51.4718 79.042 51.4038C78.5558 52.0771 78.1069 52.7766 77.6974 53.4991C77.1653 54.4368 76.6992 55.4105 76.3025 56.413L64.6084 53.4991C65.5321 50.7723 66.8014 48.1752 68.3853 45.771C70.4155 42.7034 72.3275 39.8102 75.7646 38.569C77.4846 37.9454 79.0923 37.9366 80.3985 38.0606C82.6086 38.2714 84.8354 38.2298 87.0361 37.9366C87.7531 37.8462 88.4638 37.7109 89.1639 37.5317H89.1669C90.3492 37.2273 91.5164 36.7958 94.4628 36.0599C101.585 34.2777 104.068 34.535 105.799 35.791C106.083 35.9956 106.346 36.2272 106.585 36.4825L106.461 36.4914C107.578 36.4589 108.713 36.5298 109.706 36.7928C110.939 37.1179 111.119 37.579 111.163 37.7533C111.296 38.2942 110.785 38.8438 110.608 39.0211L110.475 39.027C111.503 39.0982 112.124 39.3462 112.402 39.8427C112.676 40.3244 112.511 40.8978 112.455 41.0958Z" fill="#DBCAC2"/>
<path d="M96.1838 41.744C101.149 39.771 106.463 38.8222 111.804 38.9547M93.3853 39.7352C97.8587 37.875 102.588 36.7016 107.412 36.2549" stroke="#553826" stroke-width="0.339333" stroke-miterlimit="10"/>
<path d="M64.6104 53.4981C65.5327 50.7707 66.8019 48.1733 68.3868 45.7696C70.4156 42.7016 72.3276 39.8104 75.764 38.568C78.2071 37.6848 80.4166 38.0356 81.8666 38.248C85.6577 38.8033 86.0219 40.2191 89.7733 41.448C96.1347 43.5315 101.095 41.4277 102.196 43.8421C102.502 44.514 102.344 45.1732 102.304 45.3386C101.498 48.7035 93.4374 49.4219 89.5632 49.3931C87.5703 49.3776 85.5842 49.1586 83.6358 48.7394" fill="#DBCAC2"/>
<path d="M81.8662 38.248C85.6573 38.8033 86.0215 40.2192 89.7729 41.448C96.1343 43.5316 101.095 41.4277 102.195 43.8421C102.501 44.514 102.343 45.1732 102.304 45.3386C101.497 48.7035 93.437 49.4219 89.5627 49.3931C87.5699 49.3776 85.5838 49.1586 83.6354 48.7394" stroke="#553826" stroke-width="0.3" stroke-miterlimit="10"/>
<path d="M63.38 65.3427C63.0822 62.3483 63.0979 58.1382 64.6084 53.4982C65.0079 52.2721 65.492 51.0751 66.0573 49.916C77.0439 53.4893 85.2274 55.8113 87.3326 56.3819C87.93 56.5438 88.9115 56.653 89.8933 56.2121C90.8693 55.7737 91.4275 54.9487 91.7151 54.4223L85.6128 74.4385" fill="#EDE3DD"/>
<path d="M90.1694 59.492C87.5482 60.3145 84.7386 60.3194 82.1146 59.5061L64.4419 54.0289M66.057 49.916L87.3326 56.3819C88.1815 56.6093 89.0818 56.5496 89.8933 56.2121C90.9928 55.7485 91.5436 54.9347 91.7254 54.3898C91.7219 54.4005 91.7186 54.4113 91.7151 54.4221" stroke="#553826" stroke-width="0.3" stroke-miterlimit="10"/>
<path d="M24.6256 50.7027C23.8075 50.7316 23.0026 50.9908 22.3638 51.5027C21.5575 52.1489 21.1046 53.0435 21.1633 53.856C21.2759 55.4149 23.2946 56.9921 25.6679 56.3819L46.9432 49.916L24.6256 50.7027Z" fill="#553826" stroke="#553826" stroke-width="0.3" stroke-linecap="round" stroke-linejoin="round"/>
<path d="M0.545659 41.0958C1.50024 44.3968 15.2571 48.4751 15.2571 48.4751C23.8097 51.0137 27.2911 51.3595 29.8533 51.4511C31.4166 51.5072 32.8056 51.4718 33.9582 51.4038C34.4444 52.0771 34.8933 52.7766 35.3028 53.4991C35.8349 54.4368 36.301 55.4105 36.6977 56.413L48.3918 53.4991C47.4681 50.7723 46.1988 48.1752 44.615 45.771C42.5847 42.7034 40.6727 39.8102 37.2356 38.569C35.5156 37.9454 33.9079 37.9366 32.6017 38.0606C30.3916 38.2714 28.1648 38.2298 25.9641 37.9366C25.2471 37.8462 24.5364 37.7109 23.8363 37.5317H23.8333C22.6511 37.2273 21.4838 36.7958 18.5374 36.0599C11.4152 34.2777 8.93273 34.535 7.20095 35.791C6.91724 35.9956 6.65398 36.2272 6.41482 36.4825L6.53895 36.4914C5.42188 36.4589 4.28699 36.5298 3.29401 36.7928C2.06166 37.1179 1.88144 37.579 1.83704 37.7533C1.7041 38.2942 2.21535 38.8438 2.39259 39.0211L2.52557 39.027C1.49713 39.0982 0.876682 39.3462 0.598726 39.8427C0.324015 40.3244 0.489526 40.8978 0.545659 41.0958Z" fill="#DBCAC2"/>
<path d="M16.8167 41.744C11.8511 39.771 6.53786 38.8222 1.19629 38.9547M19.6152 39.7352C15.1417 37.875 10.4128 36.7016 5.58856 36.2549" stroke="#553826" stroke-width="0.3" stroke-miterlimit="10"/>
<path d="M48.3899 53.4981C47.4676 50.7707 46.1983 48.1733 44.6135 45.7696C42.5846 42.7016 40.6727 39.8104 37.2363 38.568C34.7931 37.6848 32.5837 38.0356 31.1336 38.248C27.3425 38.8033 26.9784 40.2191 23.227 41.448C16.8655 43.5315 11.9051 41.4277 10.8047 43.8421C10.4985 44.514 10.6565 45.1732 10.6962 45.3386C11.5027 48.7035 19.5628 49.4219 23.4371 49.3931C25.43 49.3776 27.4161 49.1586 29.3644 48.7394" fill="#DBCAC2"/>
<path d="M31.1336 38.248C27.3425 38.8033 26.9784 40.2192 23.227 41.448C16.8655 43.5316 11.9051 41.4277 10.8047 43.8421C10.4985 44.514 10.6565 45.1732 10.6962 45.3386C11.5027 48.7035 19.5628 49.4219 23.4371 49.3931C25.43 49.3776 27.4161 49.1586 29.3644 48.7394" stroke="#553826" stroke-width="0.339333" stroke-miterlimit="10"/>
<path d="M49.6202 65.3427C49.918 62.3483 49.9023 58.1382 48.3918 53.4982C47.9923 52.2721 47.5082 51.0751 46.9429 49.916C35.9563 53.4893 27.7728 55.8113 25.6676 56.3819C25.0702 56.5438 24.0888 56.653 23.1069 56.2121C22.1309 55.7737 21.5727 54.9487 21.2852 54.4223L27.3872 74.4385" fill="#EDE3DD"/>
<path d="M22.8308 59.492C25.452 60.3145 28.2615 60.3194 30.8856 59.5061L48.5582 54.0289M46.9431 49.916L25.6678 56.3819C24.8188 56.6093 23.9185 56.5496 23.107 56.2121C22.0075 55.7485 21.4567 54.9347 21.2749 54.3898C21.2785 54.4005 21.2818 54.4113 21.2853 54.4221" stroke="#553826" stroke-width="0.339333" stroke-miterlimit="10"/>
<path d="M81.5 32.0593C81.4421 30.5856 81.3111 25.5043 84.6942 20.7004C88.3894 15.4534 95.8668 13.7793 97.161 13.4767L81.9688 2.46958C81.4858 2.11368 80.9261 1.88451 80.3367 1.80133C79.7473 1.71815 79.1455 1.7834 78.5819 1.99158C76.3786 2.80904 72.9699 4.58223 70.3297 8.33126C66.9466 13.1351 65.9421 20.0855 66 21.5593L81.5 32.0593Z" fill="#EDE3DD"/>
<path d="M80.5317 30.0189C80.4581 28.5938 80.384 23.754 83.731 19.1155C87.3868 14.0491 92.5949 12.7277 93.8915 12.4376L82.2997 4.27682C81.8109 3.93175 81.2464 3.70908 80.6537 3.62752C80.0609 3.54595 79.4572 3.60788 78.8934 3.80809C76.6894 4.59427 72.5 6.44102 70.4998 10.4415C68.4995 14.442 68 17.9415 67.4735 20.8256L80.5317 30.0189Z" fill="white" stroke="#553826" stroke-width="0.3"/>
<path d="M49.4715 2.5496C46.011 1.20129 42.1059 1.45276 38.6707 3.07898L38.523 3.14694C35.1268 4.70965 32.4532 7.48187 31.245 10.9364C29.5339 15.8291 30.9939 21.4197 34.5711 24.8811C37.9725 28.178 43.0952 29.3529 48.0016 28.1152C49.845 32.4094 54.7817 44.092 55.3738 45.3975C55.4838 45.64 55.642 45.8576 55.8388 46.037C56.0356 46.2165 56.2668 46.354 56.5185 46.4412C56.7701 46.5284 57.0368 46.5636 57.3025 46.5444C57.5681 46.5253 57.827 46.4523 58.0636 46.3299L58.0991 46.3114C58.5534 46.0762 58.898 45.673 59.0594 45.1876C59.2209 44.7022 59.1864 44.1729 58.9634 43.7125C58.428 42.6071 52.8971 29.5696 51.5415 26.5049C53.3724 25.2269 54.8753 23.6116 55.9605 21.7989C57.3529 19.4731 58.0617 16.8212 57.8983 14.1472C57.5967 9.17867 54.3005 4.43307 49.4715 2.5496ZM51.3851 21.6824C50.514 22.6435 49.4575 23.4185 48.2792 23.9607C47.1008 24.5029 45.825 24.8011 44.5284 24.8375C40.9137 24.9425 36.9225 23.0346 35.2425 19.3411C34.0158 16.6395 34.2947 13.5767 35.4603 11.3163C36.4706 9.35493 38.2225 7.81031 40.4051 6.84831C42.5583 5.81525 44.8684 5.49076 47.0152 5.99942C49.4929 6.58351 51.9978 8.3652 53.2515 11.0544C54.9665 14.7319 53.8191 19.0042 51.3851 21.6824Z" fill="#DBCAC2"/>
<path d="M51.3852 21.6823C50.5141 22.6434 49.4576 23.4183 48.2793 23.9605C47.1009 24.5027 45.8251 24.801 44.5285 24.8373C40.9138 24.9424 36.9226 23.0345 35.2426 19.341C34.0159 16.6394 34.2948 13.5765 35.4604 11.3161C36.4707 9.35479 38.2226 7.81017 40.4052 6.84817C42.5584 5.81511 44.8685 5.49062 47.0154 5.99928C49.493 6.58337 51.9979 8.36506 53.2517 11.0543C54.9666 14.7317 53.8192 19.0041 51.3852 21.6823Z" fill="white" stroke="#553826" stroke-width="0.3" stroke-linecap="round" stroke-linejoin="round"/>
</g>
<defs>
<clipPath id="clip0_11372_60278">
<rect width="113" height="75" fill="white"/>
</clipPath>
</defs>
</svg>
