<svg width="52" height="78" viewBox="0 0 52 78" fill="none" xmlns="http://www.w3.org/2000/svg">
<path d="M46.5568 25.5407L26.3092 37.2307L6.06152 25.5407L26.3092 13.8507L46.5568 25.5407Z" fill="white" stroke="#534D48" stroke-width="0.303732" stroke-linejoin="round"/>
<path d="M26.3096 13.8507V37.2307" stroke="#534D48" stroke-width="0.303732" stroke-linejoin="round"/>
<path d="M33.769 23.4159C34.6969 23.9017 37.5695 25.4561 38.8714 28.3617C39.089 28.8474 39.5937 30.0046 39.1374 30.4972C38.5774 31.1016 36.8694 30.3974 36.2101 30.0734C34.0901 29.0314 27.9477 24.7778 19.9062 18.6573C23.0302 19.3275 28.6742 20.7491 33.769 23.4159Z" fill="#534D48" stroke="#534D48" stroke-width="0.303732" stroke-linecap="round" stroke-linejoin="round"/>
<path d="M34.283 0.0490125C33.6053 -0.13987 32.9174 0.24979 32.3465 0.661171C32.2161 0.340771 31.8084 0.226876 31.6775 0.190317C30.1257 -0.243302 27.7232 1.79538 26.1286 3.78919C26.15 3.65911 26.1368 3.54613 26.0748 3.45324C25.944 3.25723 25.6583 3.23667 25.5524 3.22903C24.6796 3.16621 23.275 4.17559 21.9924 6.11426C19.523 9.847 19.4663 14.0539 19.4916 15.264C19.4958 15.4636 19.7562 17.4926 20.2768 21.5426C20.7675 25.3596 20.8083 25.6366 20.8324 26.2553C20.9001 27.9864 20.7648 30.5401 19.7152 33.732L30.7824 35.8748C31.0099 34.0059 31.5473 31.2681 32.9899 28.3009C34.7559 24.6685 36.2957 23.9479 38.4989 19.4436C39.348 17.7079 41.7193 12.8603 40.1979 11.4744C39.7509 11.0673 39.1231 11.1002 38.9412 11.1097C37.0562 11.2086 35.2889 13.9014 34.4712 17.7779C34.6201 14.7828 35.142 12.4548 35.6077 10.8495C36.8683 6.50472 37.1629 5.56373 37.1629 5.56369C37.9144 3.16295 38.4222 1.73611 37.6929 0.876667C37.3533 0.476584 36.7685 0.226358 36.2289 0.284479C35.8293 0.327523 35.4748 0.541349 35.1089 0.990363C35.1076 0.773434 35.0537 0.589444 34.9339 0.440343C34.7199 0.175001 34.3365 0.0639306 34.283 0.0490125Z" fill="#DBCAC2"/>
<path d="M30.979 11.1769C32.0939 7.37868 33.5702 3.6961 35.388 0.179688M26.6984 10.4394C27.3051 6.37889 29.4658 2.71299 32.7243 0.215531M23.1064 10.8298C23.5375 8.11835 24.6424 5.55852 26.3198 3.38508M34.4461 18.7175C34.3979 17.9855 34.5075 17.2517 34.7676 16.5658" stroke="#534D48" stroke-width="0.303732" stroke-miterlimit="10"/>
<path d="M7.46387 67.2329L25.5812 77.0658C26.9685 72.4968 37.1914 36.1343 37.9183 34.0633C38.3582 32.8087 38.8016 31.5643 39.2486 30.3303C39.2441 30.3387 39.2303 30.3638 39.214 30.3891C39.2023 30.4107 39.189 30.4314 39.1742 30.451C39.1629 30.4675 39.15 30.4828 39.1358 30.4969C38.5778 31.1006 36.8701 30.3977 36.2096 30.0731C34.0899 29.0318 27.9477 24.7789 19.9056 18.6583C18.778 23.7676 8.59147 62.1237 7.46387 67.2329Z" fill="#EDE3DD"/>
<path d="M38.0408 33.7156C36.1552 33.9037 34.2617 33.446 32.6703 32.4174L18.8418 23.4796" stroke="#534D48" stroke-width="0.303732" stroke-miterlimit="10"/>
<path d="M38.8714 28.3617C39.089 28.8474 39.5937 30.0046 39.1374 30.4972C38.5774 31.1016 36.8694 30.3974 36.2101 30.0734C34.0901 29.0314 27.9477 24.7778 19.9062 18.6573" stroke="#534D48" stroke-width="0.303732" stroke-linecap="round" stroke-linejoin="round"/>
<path d="M46.5568 48.9206L26.3092 60.6106V37.2306L46.5568 25.5406V48.9206ZM26.3092 60.6106L6.06152 48.9206V25.5406L26.3092 37.2306V60.6106Z" fill="#DBCAC2"/>
<path d="M26.3096 37.2306L46.5572 25.5406L51.6191 34.3081L31.3715 45.9981L26.3096 37.2306ZM26.3096 60.6106L46.5573 48.9206L51.6192 57.6881L31.3715 69.3781L26.3096 60.6106Z" fill="white" stroke="#534D48" stroke-width="0.303732" stroke-linejoin="round"/>
<path d="M1 34.3081L6.06192 25.5406L26.3096 37.2306L21.2476 45.9981L1 34.3081ZM1 57.6881L6.06192 48.9206L26.3095 60.6106L21.2476 69.3781L1 57.6881Z" fill="white" stroke="#534D48" stroke-width="0.303732" stroke-linejoin="round"/>
<path d="M7.46387 46.3893L11.3248 48.6184M7.46387 47.7054L11.3248 49.9345M26.3093 37.2306V60.6105" stroke="#534D48" stroke-width="0.303732" stroke-linejoin="round"/>
</svg>
