<svg width="87" height="84" viewBox="0 0 87 84" fill="none" xmlns="http://www.w3.org/2000/svg">
<g clip-path="url(#clip0_11372_14378)">
<path d="M36.6203 66.5561C53.1348 66.5561 66.5224 53.1685 66.5224 36.654C66.5224 20.1396 53.1348 6.75195 36.6203 6.75195C20.1059 6.75195 6.71826 20.1396 6.71826 36.654C6.71826 53.1685 20.1059 66.5561 36.6203 66.5561Z" fill="#F7F5F4"/>
<path d="M64.194 48.2421L46.3809 40.9316L34.7754 68.3017L52.5884 75.6122L64.194 48.2421Z" fill="#EDE3DD"/>
<path d="M57.412 74.306L61.951 57.6875L2.8584 57.6927L7.39592 74.306C8.08704 76.8364 9.59083 79.0695 11.6757 80.6613C13.7606 82.2531 16.311 83.1154 18.9341 83.1154H45.8739C48.497 83.1154 51.0474 82.2531 53.1323 80.6613C55.2171 79.0695 56.7209 76.8364 57.412 74.306Z" fill="#AA9C93"/>
<path d="M6.04785 69.3722L58.7612 69.3652" stroke="#534D48" stroke-width="0.3" stroke-miterlimit="10"/>
<path d="M22.873 83.1154L22.8763 57.6875" stroke="#534D48" stroke-width="0.3" stroke-miterlimit="10"/>
<path d="M42.6709 83.1137L42.6741 57.6875" stroke="#534D48" stroke-width="0.3" stroke-miterlimit="10"/>
<path d="M22.8765 57.6859C22.8765 52.219 27.3086 47.7871 32.7753 47.7871C38.242 47.7871 42.6741 52.2192 42.6741 57.6859" stroke="#534D48" stroke-width="0.3" stroke-miterlimit="10"/>
<path d="M47.0363 25.2803L48.9156 34.6778C49.0698 35.4497 49.4491 36.1586 50.0057 36.7152C50.5623 37.2718 51.2713 37.6512 52.0432 37.8054L61.4407 39.6847C62.0843 39.8136 62.7497 39.7815 63.378 39.5914C64.0062 39.4012 64.5778 39.0589 65.0419 38.5948L86.0866 17.5501L69.1713 0.634766L48.1266 21.6795C47.6626 22.1436 47.3203 22.7151 47.1301 23.3432C46.9399 23.9714 46.9077 24.6367 47.0363 25.2803ZM54.2348 32.4868C54.5136 32.7656 54.7035 33.1208 54.7804 33.5074C54.8573 33.8941 54.8178 34.295 54.6669 34.6592C54.5161 35.0235 54.2606 35.3348 53.9327 35.5538C53.6049 35.7729 53.2195 35.8898 52.8252 35.8898C52.431 35.8898 52.0456 35.7729 51.7177 35.5538C51.3899 35.3348 51.1344 35.0235 50.9835 34.6592C50.8326 34.295 50.7932 33.8941 50.8701 33.5074C50.947 33.1208 51.1368 32.7656 51.4156 32.4868C51.6007 32.3016 51.8205 32.1547 52.0623 32.0545C52.3042 31.9543 52.5634 31.9027 52.8252 31.9027C53.087 31.9027 53.3463 31.9543 53.5881 32.0545C53.83 32.1547 54.0497 32.3016 54.2348 32.4868Z" fill="#EDE3DD"/>
<g clip-path="url(#clip1_11372_14378)">
<path d="M71.565 24.7323L71.5649 24.7345C71.5215 25.3064 71.0456 25.7565 70.4684 25.7643L70.4652 25.7644L70.3448 25.7668L70.3436 25.7668C67.4626 25.8315 65.1364 25.8814 63.2692 25.6295C61.4136 25.3792 60.0919 24.8401 59.162 23.7895C58.3526 22.8712 58.0038 21.5892 58.2637 20.4002L58.2637 20.3999C58.7523 18.157 60.8734 16.9634 62.8416 17.1725L63.4235 17.2344L63.3938 16.6499C63.293 14.6716 64.5973 12.6157 66.8667 12.2567L66.8683 12.2564C68.0699 12.0623 69.331 12.4812 70.2033 13.3401L70.2036 13.3404C71.2037 14.3235 71.6695 15.6722 71.8181 17.5415C71.967 19.416 71.7922 21.7312 71.5757 24.5976L71.5738 24.6237L71.5736 24.626L71.565 24.7323Z" stroke="#AA9C93"/>
</g>
<path d="M18.3497 32.9851C17.1812 33.3923 13.5202 34.6119 9.96396 33.386C9.36945 33.181 7.96425 32.681 7.90846 31.8895C7.84003 30.9184 9.82719 30.0154 10.6392 29.7091C13.2504 28.7239 21.88 26.8674 33.6533 24.8828C30.5515 27.0337 24.7653 30.7492 18.3497 32.9851Z" fill="#534D48" stroke="#534D48" stroke-width="0.358845" stroke-linecap="round" stroke-linejoin="round"/>
<path d="M13.8745 28.6526C15.7354 33.4601 16.5188 37.4466 16.8929 40.1709C17.4274 44.0494 17.4351 47.6161 19.7047 51.8481C21.7764 55.7159 23.3584 55.7029 23.6734 55.6833C24.51 55.6306 25.0924 55.0023 25.3665 54.7088C25.6475 54.4024 25.8806 54.0552 26.0579 53.6791C26.5128 55.4369 27.342 56.9134 28.5172 57.375C29.2792 57.658 30.1172 57.6595 30.8802 57.3793C32.1978 56.8871 32.7693 55.663 32.9138 55.3331C33.5862 56.3209 34.3802 57.0141 35.2281 57.1719C35.6635 57.2469 36.1112 57.1997 36.5214 57.0356C38.5365 56.1883 38.5294 52.5633 38.5236 52.2639C39.7664 53.6295 41.3652 54.4888 42.8454 54.241C43.8274 54.0782 44.6045 53.4526 45.1805 52.7645C45.9838 52.8404 46.6418 52.4343 46.6973 52.4001C49.2516 50.7029 48.0444 44.0605 46.8524 40.397C46.3056 38.7187 44.664 33.8718 40.2063 29.8054C37.3753 27.2217 35.8933 27.2209 33.1211 24.3496L13.8745 28.6526Z" fill="#DBCAC2"/>
<path d="M25.7051 33.875C26.5326 35.0582 27.5835 36.0682 28.7985 36.8482C31.2438 38.4127 33.6653 38.5856 34.761 38.5945" stroke="#534D48" stroke-width="0.3" stroke-miterlimit="10"/>
<path d="M20.6993 49.6004C20.8689 48.7502 21.3449 46.3642 22.9701 45.8835C23.7337 45.6577 24.4174 45.9511 24.4961 45.9862C26.7681 46.9997 27.5749 52.3218 25.3643 54.7074C25.1362 54.9535 24.5457 55.6308 23.6731 55.6822C22.5219 55.7499 21.6658 54.6912 21.4385 54.4102C20.0759 52.7252 20.5313 50.4423 20.6993 49.6004Z" fill="#DBCAC2"/>
<path d="M31.1111 46.88C30.9331 46.5507 30.6862 46.2636 30.3873 46.0383C29.4271 45.3318 27.9802 45.3824 27.2622 45.7613C24.6698 47.129 25.2767 56.0978 28.5177 57.3754C29.0441 57.5829 29.9797 57.7215 30.8811 57.3808C32.1476 56.9021 32.7282 55.7106 32.912 55.3329C34.3124 52.4585 32.3935 49.1147 31.1111 46.88Z" fill="#DBCAC2"/>
<path d="M36.3948 46.1964C35.7878 45.4688 34.9635 44.5087 33.8043 44.4943C32.8398 44.4823 32.1188 45.1309 31.9905 45.251C29.3895 47.6893 31.9004 56.5525 35.2272 57.1727C35.6627 57.2509 36.1115 57.2032 36.5209 57.0354C38.3831 56.245 38.4979 52.9892 38.5234 52.2625C38.5325 52.0038 38.5973 48.8366 36.3948 46.1964Z" fill="#DBCAC2"/>
<path d="M43.7653 49.0641C43.7727 48.638 43.7766 46.0995 41.8375 44.5023C41.622 44.3248 39.5715 42.6805 37.9255 43.5133C36.4322 44.2688 36.3495 46.5179 36.3361 46.8811C36.2028 50.5064 39.7754 54.7536 42.8447 54.2409C43.1471 54.1895 43.4405 54.0947 43.7157 53.9592C44.1164 53.758 44.4824 53.4941 44.7998 53.1775" fill="#DBCAC2"/>
<path d="M20.6992 49.5984C20.8674 47.6898 21.7433 46.2353 22.97 45.8815C23.0706 45.8524 23.7718 45.6611 24.496 45.9841C25.1176 46.2614 25.6296 46.8612 26 47.6352" stroke="#534D48" stroke-width="0.3" stroke-miterlimit="10"/>
<path d="M31.1111 46.8771C30.9326 46.5482 30.6858 46.2612 30.3873 46.0355C29.4007 45.3004 27.9586 45.391 27.2622 45.7582C25.4151 46.7326 25.1922 51.5655 26.3888 54.7262" stroke="#534D48" stroke-width="0.3" stroke-miterlimit="10"/>
<path d="M36.3948 46.1943C36.2517 45.9699 35.284 44.4993 33.8043 44.4922C32.8554 44.4875 32.1631 45.0873 31.9905 45.2489C29.8111 47.292 31.2207 53.8459 33.6919 56.2818" stroke="#534D48" stroke-width="0.3" stroke-miterlimit="10"/>
<path d="M40.8426 43.8363C40.0474 43.4039 38.9136 43.0114 37.9255 43.5114C36.4322 44.2669 36.3495 46.5159 36.3361 46.8792C36.2506 49.2079 37.694 51.7932 39.5509 53.2087" stroke="#534D48" stroke-width="0.3" stroke-miterlimit="10"/>
<path d="M36.356 37.0682C37.5097 37.8126 39.1044 39.0887 40.0987 41.1362C41.0478 43.0906 40.5752 43.9468 41.6115 47.3429C42.3338 49.7099 43.1829 52.3804 44.9645 52.737C45.8608 52.9163 46.6366 52.4398 46.6974 52.3994C49.2517 50.7034 48.0448 44.0612 46.8518 40.3985C46.3047 38.7189 44.6624 33.8732 40.207 29.807C37.3739 27.2214 35.8924 27.2224 33.1216 24.3516" fill="#DBCAC2"/>
<path d="M36.3555 37.0664C37.5092 37.8109 39.1039 39.087 40.0982 41.1344C41.0472 43.0888 40.5747 43.945 41.611 47.3412C42.3333 49.7082 43.1824 52.3787 44.964 52.7352C45.8603 52.9146 46.6361 52.4381 46.6969 52.3977" stroke="#534D48" stroke-width="0.3" stroke-miterlimit="10"/>
<path d="M27.1675 8.27734L0.0634766 17.2503C2.88028 22.1383 4.62248 25.6573 5.81994 27.9575C6.54575 29.3505 7.25983 30.7382 7.9622 32.1206C7.95868 32.1099 7.9481 32.0778 7.9395 32.0432C7.93035 32.0157 7.92326 31.9875 7.91831 31.959C7.91328 31.9359 7.91045 31.9124 7.90985 31.8887C7.84038 30.92 9.82627 30.0162 10.6397 29.7093C13.2501 28.7238 21.879 26.867 33.653 24.8819L27.1675 8.27734Z" fill="#EDE3DD"/>
<path d="M6.021 28.344C7.38254 26.5668 9.30721 25.3047 11.4798 24.7644L31.6475 19.748" stroke="#534D48" stroke-width="0.3" stroke-miterlimit="10"/>
<path d="M9.96396 33.386C9.36945 33.181 7.96425 32.681 7.90846 31.8895C7.84003 30.9184 9.82719 30.0154 10.6392 29.7091C13.2504 28.7239 21.88 26.8674 33.6533 24.8828" stroke="#534D48" stroke-width="0.358845" stroke-linecap="round" stroke-linejoin="round"/>
</g>
<defs>
<clipPath id="clip0_11372_14378">
<rect width="87" height="84" fill="white"/>
</clipPath>
<clipPath id="clip1_11372_14378">
<rect width="19.4416" height="19.4416" fill="white" transform="translate(53 20.3633) rotate(-43.4238)"/>
</clipPath>
</defs>
</svg>
