<svg width="0" height="0"><symbol xmlns="http://www.w3.org/2000/svg" id="pause" fill="none" viewBox="0 0 20 20"><path fill="currentColor" d="M16.875 3.75v12.5a1.25 1.25 0 0 1-1.25 1.25h-2.813a1.25 1.25 0 0 1-1.25-1.25V3.75a1.25 1.25 0 0 1 1.25-1.25h2.813a1.25 1.25 0 0 1 1.25 1.25ZM7.187 2.5H4.376a1.25 1.25 0 0 0-1.25 1.25v12.5a1.25 1.25 0 0 0 1.25 1.25h2.813a1.25 1.25 0 0 0 1.25-1.25V3.75a1.25 1.25 0 0 0-1.25-1.25Z"/></symbol><symbol xmlns="http://www.w3.org/2000/svg" id="play" fill="none" viewBox="0 0 20 20"><path fill="currentColor" d="M18.148 8.93 6.898 2.063a1.21 1.21 0 0 0-1.257-.023A1.234 1.234 0 0 0 5 3.126v13.75a1.234 1.234 0 0 0 .64 1.085 1.211 1.211 0 0 0 1.258-.023l11.25-6.867a1.249 1.249 0 0 0 0-2.14Z"/></symbol></svg>