<svg width="0" height="0"><symbol xmlns="http://www.w3.org/2000/svg" id="accessories" fill="none" viewBox="0 0 24 24"><path fill="currentColor" fill-rule="evenodd" d="M10.224 2.804A.797.797 0 0 0 9.435 2H4.046a.797.797 0 0 0-.789.804v1.758H2.79a.796.796 0 0 0-.789.804v9.518c0 1.1.833 1.995 1.886 2.078v.117c0 .444.353.804.789.804H5.98C6.241 20.197 8.174 22 10.513 22c2.515 0 4.56-2.084 4.56-4.647V11.59c0-1.937.703-3.04 2.175-3.04 1.467 0 2.174 1.109 2.174 3.04v8.781c0 .444.353.804.789.804.436 0 .789-.36.789-.804V11.59c0-2.763-1.376-4.647-3.752-4.647-2.381 0-3.753 1.877-3.753 4.647v5.762c0 1.675-1.338 3.039-2.982 3.039-1.406 0-2.601-1-2.907-2.357l-.03-.152h1.23c.437 0 .79-.36.79-.804v-.117c1.054-.083 1.886-.98 1.886-2.078V5.366a.797.797 0 0 0-.79-.804h-.468V2.804ZM3.578 6.17h6.326v8.714a.473.473 0 0 1-.469.477H4.046a.473.473 0 0 1-.468-.477V6.17Zm2.803 1.346a.8.8 0 0 1 1.121-.228.834.834 0 0 1 .225 1.142l-.78 1.191h.915c.646 0 1.031.734.673 1.281l-1.617 2.472a.8.8 0 0 1-1.121.228.834.834 0 0 1-.225-1.142l.78-1.191h-.916c-.645 0-1.03-.733-.672-1.28L6.38 7.515ZM4.835 3.608h3.811v.954h-3.81v-.954Z" clip-rule="evenodd"/></symbol><symbol xmlns="http://www.w3.org/2000/svg" id="appliances" fill="none" viewBox="0 0 24 24"><path fill="currentColor" d="M16.027 22H8.08C5.826 22 4 20.21 4 18V6c0-2.21 1.825-4 4.08-4h7.84C18.174 2 20 3.79 20 6v12c0 1.053-.43 2-1.181 2.842C18.067 21.58 17.1 22 16.027 22ZM8.08 3.684c-1.289 0-2.363.948-2.363 2.316v12c0 1.263 1.074 2.316 2.363 2.316h7.838c.645 0 1.29-.21 1.719-.737.43-.421.751-1.053.751-1.684V6c0-1.263-1.074-2.316-2.47-2.316H8.081Zm3.973 14.421c-2.792 0-5.047-2.21-5.047-4.947S9.262 8.21 12.054 8.21c2.255 0 4.188 1.368 4.832 3.473.107.421.215.948.215 1.474 0 2.737-2.255 4.947-5.047 4.947ZM8.617 13.58c.215 1.684 1.719 2.947 3.437 2.947 1.825 0 3.436-1.473 3.436-3.263a3.44 3.44 0 0 1-3.973 0 2.203 2.203 0 0 0-1.826-.21l-1.074.526Zm1.933-2.21c.645 0 1.396.21 1.933.631a1.984 1.984 0 0 0 2.148 0l.537-.316c-.537-1.158-1.826-1.895-3.114-1.895-1.504 0-2.685.843-3.222 2.106l.322-.105c.43-.316.967-.422 1.396-.422ZM8.295 6.736c-.107 0-.214 0-.43-.105-.321-.21-.429-.737-.214-1.053.215-.316.752-.421 1.074-.21.322.21.43.736.215 1.052-.108.21-.323.316-.645.316Zm8.054 0h-4.725c-.43 0-.859-.316-.859-.842 0-.527.322-.842.86-.842h4.724c.43 0 .86.315.86.842 0 .526-.43.842-.86.842Z"/></symbol><symbol xmlns="http://www.w3.org/2000/svg" id="arrow-filled" fill="none" viewBox="0 0 20 21"><path fill="currentColor" d="m12.575 4.328-6.371 5.46a.937.937 0 0 0 0 1.424l6.371 5.46a.938.938 0 0 0 1.548-.712V5.038c0-.8-.94-1.233-1.548-.71Z"/></symbol><symbol xmlns="http://www.w3.org/2000/svg" id="arrow" fill="none" viewBox="0 0 24 24"><path fill="currentColor" d="M19.127 11.696a.867.867 0 0 0-.271-.625l-4.95-4.95c-.196-.188-.399-.27-.61-.27-.482 0-.829.338-.829.798a.83.83 0 0 0 .25.595L14.41 8.96l2.185 1.997-1.748-.106h-9.13c-.505 0-.852.347-.852.844 0 .49.347.836.851.836h9.131l1.748-.105-2.185 1.996-1.695 1.718a.83.83 0 0 0-.248.595c0 .46.346.799.828.799a.845.845 0 0 0 .595-.257l4.965-4.964a.863.863 0 0 0 .271-.618Z"/></symbol><symbol xmlns="http://www.w3.org/2000/svg" id="cart" fill="none" viewBox="0 0 30 30"><path fill="currentColor" d="M11.825 29.081a3.02 3.02 0 0 1-3.016-3.016 3.019 3.019 0 0 1 3.016-3.015 3.019 3.019 0 0 1 3.016 3.015 3.02 3.02 0 0 1-3.016 3.016Zm0-4.138a1.124 1.124 0 0 0 0 2.245 1.124 1.124 0 0 0 0-2.245Zm10.483 4.138a3.019 3.019 0 0 1-3.015-3.016 3.019 3.019 0 0 1 3.015-3.015 3.019 3.019 0 0 1 3.016 3.015 3.02 3.02 0 0 1-3.016 3.016Zm0-4.138a1.124 1.124 0 0 0 0 2.245 1.124 1.124 0 0 0 .794-1.916 1.124 1.124 0 0 0-.794-.33Zm2.208-4.23H9.648a3.067 3.067 0 0 1-3.005-2.396L3.558 4.842a.598.598 0 0 0-.33-.407L.668 3.248a1.183 1.183 0 0 1 .995-2.146l2.56 1.186a2.978 2.978 0 0 1 1.641 2.026L8.95 17.79a.713.713 0 0 0 .698.557h14.868a.715.715 0 0 0 .699-.554L27.614 7.47a.704.704 0 0 0-.136-.607.705.705 0 0 0-.562-.27H9.407a1.183 1.183 0 1 1 0-2.367h17.51c.945 0 1.825.425 2.413 1.165.589.74.803 1.694.589 2.615l-2.4 10.323a3.07 3.07 0 0 1-3.003 2.383Z"/></symbol><symbol xmlns="http://www.w3.org/2000/svg" id="catalog" fill="none" viewBox="0 0 24 24"><path fill="currentColor" d="M16.195 4.5H1.5a.75.75 0 0 1 0-1.5h14.695a.75.75 0 1 1 0 1.5ZM8.516 8.625H1.5a.75.75 0 0 1 0-1.5h7.016a.75.75 0 0 1 0 1.5Zm0 4.125H1.5a.75.75 0 1 1 0-1.5h7.016a.75.75 0 1 1 0 1.5Zm0 4.125H1.5a.75.75 0 1 1 0-1.5h7.016a.75.75 0 1 1 0 1.5ZM16.79 21H1.5a.75.75 0 1 1 0-1.5h15.289a.75.75 0 1 1 0 1.5Zm5.711-2.65a.745.745 0 0 1-.53-.22l-2.844-2.843a.75.75 0 1 1 1.06-1.061l2.844 2.844a.75.75 0 0 1-.53 1.28Z"/><path fill="currentColor" d="M16.195 16.937a5.623 5.623 0 0 1-3.991-1.65 5.61 5.61 0 0 1-1.654-3.992 5.61 5.61 0 0 1 1.654-3.991 5.605 5.605 0 0 1 3.991-1.654c1.508 0 2.925.587 3.992 1.654a5.604 5.604 0 0 1 1.653 3.991 5.605 5.605 0 0 1-1.653 3.992 5.63 5.63 0 0 1-3.992 1.65Zm0-9.787a4.113 4.113 0 0 0-2.93 1.215 4.122 4.122 0 0 0-1.215 2.93 4.118 4.118 0 0 0 1.215 2.931 4.15 4.15 0 0 0 6.762-1.344 4.118 4.118 0 0 0 .314-1.587 4.118 4.118 0 0 0-1.215-2.93 4.118 4.118 0 0 0-2.93-1.215Z"/></symbol><symbol xmlns="http://www.w3.org/2000/svg" id="check" fill="none" viewBox="0 0 30 30"><path fill="currentColor" fill-rule="evenodd" d="M25.768 7.061a1.251 1.251 0 0 1 .105 1.778L12.73 23.425a1.25 1.25 0 0 1-1.785.072L3.34 16.34a1.26 1.26 0 0 1 1.706-1.858l5.9 5.308a1.25 1.25 0 0 0 1.765-.093L24.015 7.162a1.25 1.25 0 0 1 1.753-.102v.001Z" clip-rule="evenodd"/></symbol><symbol xmlns="http://www.w3.org/2000/svg" id="close" fill="none" viewBox="0 0 30 30"><path fill="currentColor" fill-rule="evenodd" d="M6.25 21.982a1.25 1.25 0 0 0 1.769 1.77L15 16.766l6.983 6.983a1.25 1.25 0 0 0 1.767-1.768L16.768 15l6.982-6.983a1.25 1.25 0 1 0-1.769-1.767l-6.98 6.982L8.017 6.25A1.25 1.25 0 0 0 6.25 8.017L13.233 15 6.25 21.982Z" clip-rule="evenodd"/></symbol><symbol xmlns="http://www.w3.org/2000/svg" id="comparison" fill="none" viewBox="0 0 30 30"><g clip-path="url(#a)"><path fill="currentColor" d="M29.875 18.314 24.82 9.889l4.536-1.26a.879.879 0 1 0-.47-1.694l-5.639 1.567h-.001l-7.367 2.046V.878a.879.879 0 0 0-1.758 0v10.159l-7.819 2.171h-.001L.644 14.78a.879.879 0 1 0 .47 1.694l3.527-.98L.126 23.02a.88.88 0 0 0-.126.453A6.534 6.534 0 0 0 6.527 30c3.6 0 6.528-2.928 6.528-6.527a.88.88 0 0 0-.125-.453l-5.055-8.424 13.71-3.809-4.514 7.527a.879.879 0 0 0-.126.452 6.534 6.534 0 0 0 6.527 6.527 6.485 6.485 0 0 0 4.616-1.912A6.484 6.484 0 0 0 30 18.766a.878.878 0 0 0-.125-.452ZM6.527 28.242a4.777 4.777 0 0 1-4.687-3.89h9.375a4.777 4.777 0 0 1-4.688 3.89Zm4.097-5.648H2.43l4.096-6.828 4.097 6.828Zm12.848-11.535 4.097 6.828h-8.193l4.096-6.828Zm0 12.476a4.777 4.777 0 0 1-4.687-3.89h9.375a4.777 4.777 0 0 1-4.687 3.89Z"/></g><defs><clipPath id="a"><path fill="currentColor" d="M0 0h30v30H0z"/></clipPath></defs></symbol><symbol xmlns="http://www.w3.org/2000/svg" id="complect pc" fill="none" viewBox="0 0 24 24"><path fill="currentColor" fill-rule="evenodd" d="M9.355 2c.41 0 .744.333.744.744v1.9H13.9v-1.9a.744.744 0 0 1 1.488 0v1.9h.247a3.72 3.72 0 0 1 3.72 3.719v.248h1.9a.744.744 0 0 1 0 1.488h-1.9V13.9h1.9a.744.744 0 0 1 0 1.488h-1.9v.247a3.718 3.718 0 0 1-3.719 3.72h-.248v1.9a.744.744 0 1 1-1.488 0v-1.9h-3.8v1.9a.744.744 0 0 1-1.488 0v-1.9h-.248a3.72 3.72 0 0 1-3.72-3.719v-.248h-1.9a.744.744 0 1 1 0-1.488h1.9v-3.8h-1.9a.744.744 0 0 1 0-1.488h1.9v-.248a3.72 3.72 0 0 1 3.72-3.72h.248v-1.9c0-.41.333-.743.744-.743ZM9.3 6.131h-.937A2.232 2.232 0 0 0 6.13 8.363V9.3a.752.752 0 0 1 0 .11v5.18a.75.75 0 0 1 0 .11v.937c0 1.233 1 2.232 2.232 2.232H9.3a.763.763 0 0 1 .11 0h5.18a.763.763 0 0 1 .11 0h.937a2.23 2.23 0 0 0 2.23-2.232v-.953a.709.709 0 0 1 0-.077V9.393a.711.711 0 0 1 0-.077v-.953a2.232 2.232 0 0 0-2.23-2.232H14.7a.75.75 0 0 1-.11 0H9.41a.751.751 0 0 1-.11 0Zm-.69 3.224c0-.411.334-.744.745-.744h5.29c.41 0 .743.333.743.744v5.29c0 .41-.333.743-.744.743h-5.29a.744.744 0 0 1-.743-.744v-5.29Zm1.489.744V13.9H13.9v-3.8h-3.8Z" clip-rule="evenodd"/></symbol><symbol xmlns="http://www.w3.org/2000/svg" id="down" fill="none" viewBox="0 0 24 24"><path fill="currentColor" d="M3.468 9.713a.679.679 0 0 1 0-.95l.878-.891a.655.655 0 0 1 .936 0l8.166 8.287-1.346 1.366a.655.655 0 0 1-.936 0L3.468 9.713Z"/><path fill="currentColor" d="M19.865 9.65a.679.679 0 0 0 0-.95l-.878-.891a.655.655 0 0 0-.936 0l-8.166 8.287 1.346 1.367a.655.655 0 0 0 .936 0l7.698-7.813Z"/></symbol><symbol xmlns="http://www.w3.org/2000/svg" id="email" fill="none" viewBox="0 0 24 24"><path fill="currentColor" d="m12 11.107 9.585-6.157a2.25 2.25 0 0 0-1.335-.45H3.75a2.25 2.25 0 0 0-1.335.45L12 11.107Z"/><path fill="currentColor" d="m12.405 12.63-.127.06h-.06a.748.748 0 0 1-.405.06h-.06l-.128-.06-10.05-6.495a2.25 2.25 0 0 0-.075.555v10.5a2.25 2.25 0 0 0 2.25 2.25h16.5a2.25 2.25 0 0 0 2.25-2.25V6.75a2.251 2.251 0 0 0-.075-.555l-10.02 6.435Z"/></symbol><symbol xmlns="http://www.w3.org/2000/svg" id="favourite" fill="none" viewBox="0 0 30 30"><path fill="currentColor" d="M29.68 8.91c-.51-1.999-1.597-3.725-3.146-4.99C25.017 2.683 23.154 2 21.29 2c-2.402 0-4.584 1.068-6.293 3.047C13.289 3.068 11.108 2 8.706 2c-1.862 0-3.723.682-5.24 1.92C1.917 5.187.829 6.91.319 8.91c-.55 2.155-.66 5.592 1.933 9.727 2.358 3.76 6.426 7.234 12.092 10.325a1.364 1.364 0 0 0 1.306 0c5.668-3.091 9.738-6.565 12.097-10.325 2.594-4.135 2.483-7.572 1.934-9.726ZM14.998 26.207C1.808 18.772 2.442 11.623 2.962 9.584c.717-2.814 3.133-4.857 5.744-4.857 1.998 0 3.819 1.188 5.125 3.346a1.363 1.363 0 0 0 1.166.657c.477 0 .92-.249 1.166-.657 1.308-2.158 3.13-3.346 5.128-3.346 2.613 0 5.03 2.043 5.747 4.857.52 2.04 1.155 9.187-12.04 16.622Z"/></symbol><symbol xmlns="http://www.w3.org/2000/svg" id="geoloc" fill="none" viewBox="0 0 24 24"><path fill="currentColor" d="M12 2a8.009 8.009 0 0 0-8 8c0 3.255 2.363 5.958 4.866 8.819.792.906 1.612 1.843 2.342 2.791a1 1 0 0 0 1.584 0c.73-.948 1.55-1.885 2.342-2.791C17.637 15.958 20 13.255 20 10a8.009 8.009 0 0 0-8-8Zm0 11a3 3 0 1 1 0-5.999A3 3 0 0 1 12 13Z"/></symbol><symbol xmlns="http://www.w3.org/2000/svg" id="laptop" fill="none" viewBox="0 0 24 24"><path fill="currentColor" fill-rule="evenodd" d="M3.321 4.742c0-.41.333-.742.744-.742H19.65c.411 0 .744.332.744.742v9.555l1.567 4.727a.741.741 0 0 1-.706.976H2.744a.744.744 0 0 1-.718-.938l1.295-4.738V4.742Zm15.587 8.934V5.485h-14.1v8.191h14.1ZM4.634 15.162l-.916 3.353h16.509l-1.112-3.353H4.634Zm7.757-8.213c.35.215.459.673.243 1.022l-.002.002a.745.745 0 0 1-1.023.243.742.742 0 0 1-.243-1.021l.002-.003a.745.745 0 0 1 1.023-.243Z" clip-rule="evenodd"/></symbol><symbol xmlns="http://www.w3.org/2000/svg" id="left" fill="none" viewBox="0 0 24 24"><path fill="currentColor" d="M13.619 4.25a.679.679 0 0 1 .95 0l.891.877a.655.655 0 0 1 0 .936L7.173 14.23l-1.367-1.346a.655.655 0 0 1 0-.936l7.813-7.698Z"/><path fill="currentColor" d="M13.681 20.647a.678.678 0 0 0 .95 0l.892-.878a.655.655 0 0 0 0-.936l-8.288-8.166-1.366 1.346a.655.655 0 0 0 0 .936l7.812 7.698Z"/></symbol><symbol xmlns="http://www.w3.org/2000/svg" id="menu" fill="none" viewBox="0 0 24 24"><path fill="currentColor" d="M21 7H3c-.6 0-1-.4-1-1s.4-1 1-1h18c.6 0 1 .4 1 1s-.4 1-1 1Zm0 6H3c-.6 0-1-.4-1-1s.4-1 1-1h18c.6 0 1 .4 1 1s-.4 1-1 1Zm0 6H3c-.6 0-1-.4-1-1s.4-1 1-1h18c.6 0 1 .4 1 1s-.4 1-1 1Z"/></symbol><symbol xmlns="http://www.w3.org/2000/svg" id="minus" fill="none" viewBox="0 0 24 24"><path fill="currentColor" d="M19 11a1 1 0 1 1 0 2H5a1 1 0 1 1 0-2h14Z"/></symbol><symbol xmlns="http://www.w3.org/2000/svg" id="network" fill="none" viewBox="0 0 24 24"><path fill="currentColor" fill-rule="evenodd" d="M6.2 2.977a.75.75 0 0 1 .75.75v6.304h10.1V3.727a.75.75 0 0 1 1.5 0v6.31a3.75 3.75 0 0 1 3.535 3.744v.665a3.752 3.752 0 0 1-3.751 3.75H5.668a3.75 3.75 0 0 1-3.75-3.75v-.665a3.75 3.75 0 0 1 3.531-3.744v-6.31a.75.75 0 0 1 .75-.75Zm-.06 8.554h-.472a2.25 2.25 0 0 0-2.25 2.25v.665a2.25 2.25 0 0 0 2.25 2.25h12.666a2.251 2.251 0 0 0 2.251-2.25v-.665a2.25 2.25 0 0 0-2.25-2.25h-.475a.727.727 0 0 1-.119 0H6.26a.728.728 0 0 1-.12 0Zm11.018 2.189a.75.75 0 0 1 1.032-.245l.002.001a.75.75 0 1 1-.787 1.277l-.002-.001a.75.75 0 0 1-.245-1.032Zm-11.373.397a.75.75 0 0 1 .75-.75h4.03a.75.75 0 0 1 0 1.5h-4.03a.75.75 0 0 1-.75-.75Zm-1.203 5.996a.75.75 0 0 1 .75-.75h1.733a.75.75 0 0 1 0 1.5H5.332a.75.75 0 0 1-.75-.75Zm11.602 0a.75.75 0 0 1 .75-.75h1.733a.75.75 0 0 1 0 1.5h-1.733a.75.75 0 0 1-.75-.75Z" clip-rule="evenodd"/></symbol><symbol xmlns="http://www.w3.org/2000/svg" id="phone" fill="none" viewBox="0 0 24 24"><path fill="currentColor" d="M5.675 5.091c0-1.356 1.125-2.454 2.513-2.454H13.4c.383 0 .746.083 1.071.233.165.076.341.13.523.13h.864c.5 0 .788-.54.42-.88A4.227 4.227 0 0 0 13.4 1H8.188C5.875 1 4 2.832 4 5.091V18.91C4 21.169 5.875 23 8.188 23h5.21c.976 0 1.972-.295 2.743-.822.407-.278.162-.815-.33-.815H8.188c-1.388 0-2.513-1.098-2.513-2.454V5.09Z"/><path fill="currentColor" d="M11.851 18.522a.997.997 0 1 0-1.7-1.048l-.002.004a.997.997 0 1 0 1.7 1.048l.002-.004Z"/><path stroke="currentColor" stroke-linecap="round" stroke-linejoin="round" stroke-miterlimit="10" stroke-width="1.5" d="M21 12.062V13m-6.524 4.398L14.878 19h2.703l.402-1.602m-3.529-9.796L14.856 6h2.704l.401 1.602m-.518 8.364h-2.47c-1.09 0-1.973-.946-1.973-2.112v-2.646c0-1.166.883-2.112 1.972-2.112h2.472c1.09 0 1.972.946 1.972 2.112v2.646c0 1.166-.884 2.112-1.973 2.112Z"/><path fill="currentColor" d="M10 4.5a.5.5 0 0 1 .5-.5h2a.5.5 0 0 1 0 1h-2a.5.5 0 0 1-.5-.5Z"/></symbol><symbol xmlns="http://www.w3.org/2000/svg" id="plus" fill="none" viewBox="0 0 24 24"><path fill="currentColor" d="M19 11h-6V5a1 1 0 0 0-2 0v6H5a1 1 0 0 0 0 2h6v6a1 1 0 0 0 2 0v-6h6a1 1 0 0 0 0-2Z"/></symbol><symbol xmlns="http://www.w3.org/2000/svg" id="right" fill="none" viewBox="0 0 24 24"><path fill="currentColor" d="M10.381 19.75a.678.678 0 0 1-.95 0l-.891-.878a.655.655 0 0 1 0-.935l8.287-8.166 1.367 1.346a.655.655 0 0 1 0 .936l-7.813 7.698Z"/><path fill="currentColor" d="M10.319 3.353a.679.679 0 0 0-.95 0l-.892.878a.655.655 0 0 0 0 .936l8.288 8.166 1.366-1.346a.655.655 0 0 0 0-.936L10.32 3.353Z"/></symbol><symbol xmlns="http://www.w3.org/2000/svg" id="search" fill="none" viewBox="0 0 24 24"><path fill="currentColor" fill-rule="evenodd" d="M4.774 10.983a6.217 6.217 0 0 1 6.21-6.209 6.217 6.217 0 0 1 6.208 6.21 6.217 6.217 0 0 1-6.209 6.208 6.217 6.217 0 0 1-6.209-6.209ZM20.74 20.74a.887.887 0 0 0 0-1.254l-3.526-3.526a7.937 7.937 0 0 0 1.752-4.977c0-4.402-3.58-7.983-7.983-7.983C6.581 3 3 6.58 3 10.983c0 4.402 3.58 7.983 7.983 7.983a7.933 7.933 0 0 0 4.977-1.752l3.526 3.526a.887.887 0 0 0 1.254 0Z" clip-rule="evenodd"/></symbol><symbol xmlns="http://www.w3.org/2000/svg" id="send" fill="none" viewBox="0 0 30 30"><g clip-path="url(#a)"><path fill="currentColor" fill-rule="evenodd" d="M29.914 2.124c.42-1.26-.778-2.458-2.038-2.039L1.102 9.01c-1.503.501-1.457 2.644.067 3.079l13.021 3.72 3.72 13.022c.436 1.524 2.579 1.57 3.08.067l8.924-26.774Zm-2.099 1.2-8.354 25.064-3.713-12.996L27.815 3.325Zm-1.14-1.14L14.608 14.253 1.612 10.54l25.063-8.354Z" clip-rule="evenodd"/></g></symbol><symbol xmlns="http://www.w3.org/2000/svg" id="tel" fill="none" viewBox="0 0 24 24"><path fill="currentColor" d="m20.254 16.307-1.803-1.803a2.55 2.55 0 0 0-4.302 1.304c-2.973-.556-5.864-3.436-6.044-6.01a2.55 2.55 0 0 0 1.334-4.307L7.637 3.69a2.55 2.55 0 0 0-3.605 0c-5.408 5.408 10.815 21.63 16.222 16.223a2.549 2.549 0 0 0 0-3.605Z"/></symbol><symbol xmlns="http://www.w3.org/2000/svg" id="tg" fill="none" viewBox="0 0 30 30"><g clip-path="url(#a)"><path fill="currentColor" d="m11.771 18.976-.496 6.98c.71 0 1.018-.305 1.386-.671l3.33-3.181 6.897 5.051c1.265.705 2.156.334 2.497-1.164l4.528-21.215.001-.001c.401-1.87-.676-2.601-1.909-2.142L1.393 12.82c-1.817.705-1.789 1.718-.309 2.177l6.804 2.116 15.804-9.889c.743-.492 1.42-.22.863.273L11.771 18.976Z"/></g></symbol><symbol xmlns="http://www.w3.org/2000/svg" id="tool" fill="none" viewBox="0 0 25 24"><path fill="currentColor" fill-rule="evenodd" d="M.978 3h13.281c.841 0 1.595.378 2.099.973h2.798c1.146 0 2.125.715 2.516 1.723h2.332a.973.973 0 1 1 0 1.946h-2.332a2.697 2.697 0 0 1-2.516 1.723H16.89a2.751 2.751 0 0 1-2.63 1.946h-.158v1.142a2.75 2.75 0 0 1-2.75 2.75H9.258v5.838H5.664a2.75 2.75 0 0 1-2.75-2.75v-7.102A2.751 2.751 0 0 1 .978 8.56V3Zm16.031 2.75v2.115h2.147a1.196 1.196 0 1 0 0-2.392H17.01v.277ZM14.26 4.5a1.25 1.25 0 0 1 1.25 1.208v2.895a1.25 1.25 0 0 1-1.25 1.208H3.728c-.69 0-1.25-.56-1.25-1.25V4.5h11.781Zm-5 6.81h3.343v1.143c0 .69-.56 1.25-1.25 1.25H9.258V11.31Zm-4.845 0h3.344v8.23H5.664c-.69 0-1.25-.56-1.25-1.25v-6.98Zm9.18-6.344h-2.906v1.46h2.906v-1.46Z" clip-rule="evenodd"/></symbol><symbol xmlns="http://www.w3.org/2000/svg" id="trash" fill="none" viewBox="0 0 24 24"><path fill="currentColor" d="M20.438 2.813h-3.516v-.704A2.111 2.111 0 0 0 14.812 0H9.189c-1.164 0-2.11.946-2.11 2.11v.703H3.562a2.111 2.111 0 0 0-2.109 2.109c0 .934.61 1.728 1.453 2.004l1.255 15.14A2.122 2.122 0 0 0 6.263 24h11.474c1.089 0 2.012-.85 2.103-1.935l1.253-15.139a2.113 2.113 0 0 0 1.454-2.004c0-1.163-.946-2.11-2.11-2.11ZM8.483 2.109c0-.387.316-.703.704-.703h5.624c.388 0 .704.316.704.703v.704H8.484v-.704Zm9.954 19.84a.707.707 0 0 1-.7.645H6.262a.707.707 0 0 1-.7-.645L4.325 7.031h15.348L18.438 21.95Zm2-16.324H3.563a.704.704 0 0 1 0-1.406h16.875a.704.704 0 0 1 0 1.406Z"/><path fill="currentColor" d="M9.186 20.44 8.483 9.098a.704.704 0 0 0-1.404.087l.704 11.344a.703.703 0 1 0 1.403-.087ZM12 8.439a.703.703 0 0 0-.703.703v11.343a.703.703 0 1 0 1.406 0V9.141A.703.703 0 0 0 12 8.438Zm4.262 0a.704.704 0 0 0-.745.66l-.703 11.343a.703.703 0 1 0 1.403.087l.704-11.344a.703.703 0 0 0-.659-.745Z"/></symbol><symbol xmlns="http://www.w3.org/2000/svg" id="tv" fill="none" viewBox="0 0 24 24"><path fill="currentColor" fill-rule="evenodd" d="M10.18 1.854a6.25 6.25 0 1 0 2.598 8.993.75.75 0 0 0-.232-1.035L9.012 7.571l3.728-1.903a.75.75 0 0 0 .327-1.009 6.25 6.25 0 0 0-2.887-2.805ZM6.498 2.857A4.75 4.75 0 0 1 11.337 4.7L7.159 6.832a.75.75 0 0 0-.06 1.301l3.96 2.512a4.75 4.75 0 1 1-4.561-7.788ZM15.5 2.25a.75.75 0 0 0 0 1.5h5.75V5a.75.75 0 0 0 1.5 0V3a.75.75 0 0 0-.75-.75h-6.5ZM22.75 12a.75.75 0 0 0-1.5 0v4.25H2.75V14a.75.75 0 0 0-1.5 0v3c0 .414.336.75.75.75h6.25v2.5H6a.75.75 0 0 0 0 1.5h12a.75.75 0 0 0 0-1.5h-2.25v-2.5H22a.75.75 0 0 0 .75-.75v-5Zm-8.5 8.25h-4.5v-2.5h4.5v2.5ZM8 5a1 1 0 1 1-2 0 1 1 0 0 1 2 0Zm7 3a1 1 0 1 1-2 0 1 1 0 0 1 2 0Zm3 1a1 1 0 1 0 0-2 1 1 0 0 0 0 2Zm5-1a1 1 0 1 1-2 0 1 1 0 0 1 2 0Z" clip-rule="evenodd"/></symbol><symbol xmlns="http://www.w3.org/2000/svg" id="up" fill="none" viewBox="0 0 24 24"><path fill="currentColor" d="M20.532 15.287a.679.679 0 0 1 0 .95l-.878.892a.655.655 0 0 1-.936 0L10.552 8.84l1.346-1.366a.655.655 0 0 1 .936 0l7.698 7.812Z"/><path fill="currentColor" d="M4.135 15.35a.679.679 0 0 0 0 .95l.878.891a.655.655 0 0 0 .936 0l8.166-8.287-1.346-1.367a.655.655 0 0 0-.936 0L4.135 15.35Z"/></symbol><symbol xmlns="http://www.w3.org/2000/svg" id="user" fill="none" viewBox="0 0 30 30"><path fill="currentColor" fill-rule="evenodd" d="m11.668 18.71-.26.044c-2.41.396-4.22 2.556-4.22 5.136 0 .814.63 1.422 1.347 1.422h12.93c.716 0 1.348-.608 1.348-1.423 0-2.579-1.812-4.738-4.22-5.135l-.26-.044a20.476 20.476 0 0 0-6.665 0Zm6.97-1.85.26.044c3.357.553 5.79 3.532 5.79 6.986 0 1.793-1.414 3.297-3.223 3.297H8.535c-1.809 0-3.223-1.505-3.223-3.298 0-3.453 2.433-6.433 5.79-6.985l.26-.044a22.351 22.351 0 0 1 7.275 0ZM15 4.688c-2.334 0-4.166 1.816-4.166 3.984 0 2.17 1.832 3.984 4.166 3.984 2.334 0 4.166-1.816 4.166-3.985 0-2.168-1.832-3.983-4.166-3.983ZM8.96 8.671c0-3.268 2.738-5.86 6.041-5.86 3.304 0 6.041 2.592 6.041 5.86 0 3.27-2.737 5.86-6.04 5.86-3.304 0-6.042-2.592-6.042-5.86Z" clip-rule="evenodd"/></symbol><symbol xmlns="http://www.w3.org/2000/svg" id="vk" fill="none" viewBox="0 0 30 30"><g clip-path="url(#a)"><path fill="currentColor" d="M29.841 21.9a2.067 2.067 0 0 0-.102-.195c-.52-.938-1.515-2.088-2.983-3.453l-.031-.03-.016-.016-.015-.016h-.016c-.666-.635-1.088-1.062-1.265-1.28-.323-.418-.396-.84-.22-1.266.126-.323.595-1.005 1.407-2.046.427-.552.765-.995 1.015-1.328 1.801-2.395 2.583-3.926 2.343-4.592l-.093-.156c-.063-.094-.224-.18-.484-.258-.26-.078-.594-.09-1-.039l-4.498.031a.597.597 0 0 0-.313.008l-.203.047-.078.04-.063.046a.693.693 0 0 0-.171.164c-.063.078-.115.17-.156.274a25.491 25.491 0 0 1-1.672 3.514 33.65 33.65 0 0 1-1.062 1.68c-.323.473-.594.822-.812 1.046a5.66 5.66 0 0 1-.594.538c-.177.136-.312.193-.406.172a12.157 12.157 0 0 1-.266-.062 1.038 1.038 0 0 1-.35-.383 1.714 1.714 0 0 1-.18-.61 6.755 6.755 0 0 1-.055-.632 12.71 12.71 0 0 1 .008-.75c.01-.323.015-.541.015-.656 0-.395.008-.825.024-1.288.015-.464.028-.83.039-1.101.01-.271.015-.558.015-.86 0-.301-.018-.538-.054-.71a2.434 2.434 0 0 0-.164-.5.843.843 0 0 0-.32-.375 1.805 1.805 0 0 0-.523-.21c-.552-.126-1.255-.193-2.11-.204-1.936-.02-3.18.104-3.732.375-.219.115-.417.27-.594.469-.187.229-.213.354-.078.374.625.094 1.067.318 1.327.672l.094.188c.073.135.146.374.22.718.072.344.119.724.14 1.14.052.76.052 1.411 0 1.952-.052.542-.102.964-.149 1.266a2.53 2.53 0 0 1-.21.734 3.085 3.085 0 0 1-.188.343.268.268 0 0 1-.078.079 1.17 1.17 0 0 1-.422.078c-.146 0-.323-.073-.531-.219a3.747 3.747 0 0 1-.648-.601 8.04 8.04 0 0 1-.758-1.07c-.28-.459-.573-1-.874-1.625l-.25-.453c-.157-.291-.37-.716-.64-1.273a24.332 24.332 0 0 1-.72-1.617 1.03 1.03 0 0 0-.374-.5l-.078-.046a1.069 1.069 0 0 0-.25-.133 1.658 1.658 0 0 0-.36-.102L1 7.225c-.436 0-.733.099-.89.296l-.062.094a.505.505 0 0 0-.047.25c0 .115.031.255.094.422a51.544 51.544 0 0 0 2.038 4.248c.734 1.364 1.372 2.463 1.913 3.296a39 39 0 0 0 1.656 2.358c.562.74.935 1.214 1.117 1.422.182.208.325.364.43.468l.39.375c.25.25.617.55 1.101.898.485.35 1.02.693 1.61 1.032a8.728 8.728 0 0 0 2.053.827c.781.214 1.541.3 2.28.258h1.797c.364-.031.64-.146.828-.344l.062-.078c.042-.062.08-.159.117-.288.037-.13.055-.274.055-.43-.01-.448.023-.851.101-1.21.078-.36.167-.63.266-.813a2.017 2.017 0 0 1 .602-.687.896.896 0 0 1 .124-.054c.25-.084.544-.003.883.242.338.245.656.547.953.906.297.36.653.763 1.07 1.21.416.448.78.781 1.093 1l.312.187c.209.125.48.24.813.344.332.104.624.13.874.078l3.999-.062c.395 0 .703-.066.921-.195.219-.13.349-.274.39-.43a1.21 1.21 0 0 0 .009-.531 1.96 1.96 0 0 0-.11-.414Z"/></g></symbol><symbol xmlns="http://www.w3.org/2000/svg" id="youtube" fill="none" viewBox="0 0 30 30"><g clip-path="url(#a)"><path fill="currentColor" d="M29.582 7.852c-.158-1.314-1.396-2.573-2.69-2.742a96.412 96.412 0 0 0-23.782 0C1.814 5.278.576 6.538.418 7.852a61.294 61.294 0 0 0 0 14.296c.158 1.313 1.396 2.574 2.692 2.742a96.411 96.411 0 0 0 23.781 0c1.295-.168 2.533-1.429 2.69-2.742a61.295 61.295 0 0 0 0-14.296ZM12.5 20.001V10l7.5 5-7.5 5Z"/></g></symbol></svg>