<svg width="24" height="24" viewBox="0 0 24 24" fill="none" xmlns="http://www.w3.org/2000/svg">
<path fill-rule="evenodd" clip-rule="evenodd" d="M10.2244 2.80399C10.2244 2.35992 9.87113 2 9.43532 2H4.04631C3.6106 2 3.25725 2.35997 3.25725 2.80399V4.56208H2.78906C2.35328 4.56208 2 4.92212 2 5.36607V14.8837C2 15.984 2.83323 16.8793 3.88588 16.9624V17.079C3.88588 17.5231 4.23912 17.883 4.67494 17.883H5.98124C6.24022 20.1968 8.17356 22 10.5128 22C13.0278 22 15.0736 19.9155 15.0736 17.3529V11.5907C15.0736 9.65449 15.7756 8.55149 17.2477 8.55149C18.7155 8.55149 19.4219 9.65971 19.4219 11.5907V20.3721C19.4219 20.8162 19.7751 21.1761 20.2109 21.1761C20.6466 21.1761 21 20.8161 21 20.3721V11.5907C21 8.82817 19.624 6.94352 17.2477 6.94352C14.867 6.94352 13.4954 8.82132 13.4954 11.5907V17.3529C13.4954 19.0285 12.1572 20.392 10.5128 20.392C9.10714 20.392 7.91159 19.3911 7.60568 18.0351L7.57539 17.883H8.80684C9.24255 17.883 9.59589 17.523 9.59589 17.079V16.9624C10.6502 16.8791 11.4818 15.9825 11.4818 14.8837V5.36607C11.4818 4.92216 11.1284 4.56208 10.6927 4.56208H10.2244V2.80399ZM3.57821 6.17012H9.90376V14.8837C9.90376 15.1462 9.69515 15.3608 9.43541 15.3608H4.0464C3.78892 15.3608 3.57821 15.1483 3.57821 14.8837V6.17012ZM6.3809 7.51631C6.62862 7.1377 7.13067 7.03538 7.50226 7.2878C7.87384 7.54021 7.97425 8.05175 7.72652 8.43037L6.94739 9.62118H7.86234C8.50818 9.62118 8.89339 10.3546 8.53515 10.9022L6.91791 13.3739C6.67019 13.7525 6.16813 13.8548 5.79655 13.6024C5.42496 13.35 5.32455 12.8384 5.57228 12.4598L6.35141 11.269H5.43647C4.79063 11.269 4.40541 10.5356 4.76366 9.98807L6.3809 7.51631ZM4.83535 3.60807H8.64624V4.56218H4.83535V3.60807Z" fill="#A63C24"/>
</svg>
