<svg width="24" height="24" viewBox="0 0 24 24" fill="none" xmlns="http://www.w3.org/2000/svg">
<path d="M16.0268 22H8.08054C5.8255 22 4 20.2105 4 18V6C4 3.78947 5.8255 2 8.08054 2H15.9195C18.1745 2 20 3.78947 20 6V18C20 19.0526 19.5705 20 18.8188 20.8421C18.0671 21.5789 17.1007 22 16.0268 22ZM8.08054 3.68421C6.79195 3.68421 5.71812 4.63158 5.71812 6V18C5.71812 19.2632 6.79195 20.3158 8.08054 20.3158H15.9195C16.5638 20.3158 17.2081 20.1053 17.6376 19.5789C18.0671 19.1579 18.3893 18.5263 18.3893 17.8947V6C18.3893 4.73684 17.3154 3.68421 15.9195 3.68421H8.08054ZM12.0537 18.1053C9.26174 18.1053 7.00671 15.8947 7.00671 13.1579C7.00671 10.4211 9.26174 8.21053 12.0537 8.21053C14.3087 8.21053 16.2416 9.57895 16.8859 11.6842C16.9933 12.1053 17.1007 12.6316 17.1007 13.1579C17.1007 15.8947 14.8456 18.1053 12.0537 18.1053ZM8.61745 13.5789C8.83221 15.2632 10.3356 16.5263 12.0537 16.5263C13.8792 16.5263 15.4899 15.0526 15.4899 13.2632C14.3087 14.1053 12.698 14.1053 11.5168 13.2632C10.9799 12.9474 10.3356 12.8421 9.69128 13.0526L8.61745 13.5789ZM10.5503 11.3684C11.1946 11.3684 11.9463 11.5789 12.4832 12C13.1275 12.4211 13.9866 12.4211 14.6309 12L15.1678 11.6842C14.6309 10.5263 13.3423 9.78947 12.0537 9.78947C10.5503 9.78947 9.36913 10.6316 8.83221 11.8947L9.15436 11.7895C9.58389 11.4737 10.1208 11.3684 10.5503 11.3684ZM8.2953 6.73684C8.18792 6.73684 8.08054 6.73684 7.86577 6.63158C7.54362 6.42105 7.43624 5.89474 7.65101 5.57895C7.86577 5.26316 8.40268 5.15789 8.72483 5.36842C9.04698 5.57895 9.15436 6.10526 8.9396 6.42105C8.83222 6.63158 8.61745 6.73684 8.2953 6.73684ZM16.349 6.73684H11.6242C11.1946 6.73684 10.7651 6.42105 10.7651 5.89474C10.7651 5.36842 11.0872 5.05263 11.6242 5.05263H16.349C16.7785 5.05263 17.2081 5.36842 17.2081 5.89474C17.2081 6.42105 16.7785 6.73684 16.349 6.73684Z" fill="#A63C24"/>
</svg>
