<svg width="24" height="24" viewBox="0 0 24 24" fill="none" xmlns="http://www.w3.org/2000/svg">
<path d="M19.1271 11.6961C19.1271 11.4625 19.0292 11.2365 18.8559 11.0708L13.9064 6.1213C13.7105 5.93297 13.5071 5.8501 13.2962 5.8501C12.814 5.8501 12.4675 6.1891 12.4675 6.64865C12.4675 6.88972 12.5654 7.09312 12.7161 7.24379L14.4111 8.96143L16.5958 10.9578L14.8481 10.8523H5.71749C5.21275 10.8523 4.86621 11.1989 4.86621 11.6961C4.86621 12.1858 5.21275 12.5323 5.71749 12.5323H14.8481L16.5958 12.4268L14.4111 14.4232L12.7161 16.1408C12.5654 16.2915 12.4675 16.4949 12.4675 16.736C12.4675 17.1955 12.814 17.5345 13.2962 17.5345C13.5071 17.5345 13.7105 17.4517 13.8913 17.2784L18.8559 12.3138C19.0292 12.1481 19.1271 11.9221 19.1271 11.6961Z" fill="#A63C24"/>
</svg>
