<svg width="30" height="30" viewBox="0 0 30 30" fill="none" xmlns="http://www.w3.org/2000/svg">
<path d="M11.8247 29.0811C10.1618 29.0811 8.80887 27.7282 8.80887 26.0653C8.80887 24.4025 10.1618 23.05 11.8247 23.05C13.4875 23.05 14.8405 24.4025 14.8405 26.0653C14.8405 27.7282 13.4875 29.0811 11.8247 29.0811ZM11.8247 24.9429C11.527 24.9431 11.2416 25.0615 11.0311 25.2719C10.8205 25.4823 10.7021 25.7677 10.7017 26.0653C10.7017 26.6848 11.2052 27.1883 11.8247 27.1883C12.4441 27.1883 12.9476 26.6848 12.9476 26.0653C12.9472 25.7677 12.8288 25.4823 12.6183 25.2719C12.4077 25.0615 12.1223 24.9431 11.8247 24.9429ZM22.3082 29.0811C20.6454 29.0811 19.2929 27.7282 19.2929 26.0653C19.2929 24.4025 20.6454 23.05 22.3082 23.05C23.9711 23.05 25.324 24.4025 25.324 26.0653C25.324 27.7282 23.9706 29.0811 22.3082 29.0811ZM22.3082 24.9429C22.0107 24.9433 21.7254 25.0616 21.515 25.2721C21.3045 25.4825 21.1862 25.7678 21.1858 26.0653C21.186 26.363 21.3044 26.6484 21.5148 26.8589C21.7252 27.0695 22.0106 27.1879 22.3082 27.1883C22.606 27.188 22.8915 27.0696 23.102 26.8591C23.3125 26.6486 23.4309 26.3631 23.4312 26.0653C23.4308 25.7677 23.3124 25.4823 23.1018 25.2719C22.8913 25.0615 22.6059 24.9431 22.3082 24.9429ZM24.5163 20.7123H9.64835C8.9496 20.7151 8.27085 20.4792 7.72442 20.0437C7.17798 19.6082 6.79662 18.9992 6.64345 18.3174L3.55762 4.8417C3.53717 4.75333 3.49689 4.67077 3.43983 4.60027C3.38277 4.52976 3.31042 4.47316 3.22826 4.43474L0.668648 3.24839C0.389028 3.11338 0.173697 2.87385 0.0691177 2.58148C-0.0354612 2.28911 -0.020903 1.96735 0.109651 1.68562C0.240205 1.4039 0.476287 1.18479 0.766957 1.07558C1.05763 0.966376 1.37958 0.975825 1.66334 1.10189L4.22296 2.28824C4.63217 2.47929 4.99258 2.76092 5.2769 3.11181C5.56121 3.4627 5.762 3.87366 5.86406 4.31359L8.94989 17.7903C8.98548 17.9487 9.07412 18.0903 9.20114 18.1915C9.32817 18.2927 9.48595 18.3475 9.64835 18.3468H24.5163C24.6783 18.3472 24.8356 18.2927 24.9625 18.192C25.0894 18.0913 25.1784 17.9505 25.2147 17.7926L27.6139 7.4704C27.6393 7.36545 27.6402 7.25607 27.6166 7.15071C27.593 7.04536 27.5454 6.94685 27.4776 6.8628C27.4111 6.7777 27.3258 6.70903 27.2285 6.6621C27.1312 6.61516 27.0244 6.59122 26.9164 6.59212H9.40749C9.09373 6.59212 8.79282 6.46748 8.57096 6.24561C8.34909 6.02375 8.22445 5.72284 8.22445 5.40908C8.22445 5.09532 8.34909 4.79441 8.57096 4.57255C8.79282 4.35069 9.09373 4.22605 9.40749 4.22605H26.9164C27.8624 4.22605 28.7416 4.65052 29.3303 5.3911C29.9189 6.13168 30.1328 7.08473 29.9189 8.00608L27.5193 18.3288C27.3634 19.0078 26.9812 19.6137 26.4355 20.0468C25.8898 20.48 25.213 20.7147 24.5163 20.7123Z" fill="#A63C24"/>
</svg>
