<svg width="24" height="24" viewBox="0 0 24 24" fill="none" xmlns="http://www.w3.org/2000/svg">
<path d="M16.1947 4.5H1.5C1.30109 4.5 1.11032 4.42098 0.96967 4.28033C0.829018 4.13968 0.75 3.94891 0.75 3.75C0.75 3.55109 0.829018 3.36032 0.96967 3.21967C1.11032 3.07902 1.30109 3 1.5 3H16.1947C16.3937 3 16.5844 3.07902 16.7251 3.21967C16.8657 3.36032 16.9447 3.55109 16.9447 3.75C16.9447 3.94891 16.8657 4.13968 16.7251 4.28033C16.5844 4.42098 16.3937 4.5 16.1947 4.5ZM8.51625 8.625H1.5C1.30109 8.625 1.11032 8.54598 0.96967 8.40533C0.829018 8.26468 0.75 8.07391 0.75 7.875C0.75 7.67609 0.829018 7.48532 0.96967 7.34467C1.11032 7.20402 1.30109 7.125 1.5 7.125H8.51625C8.71516 7.125 8.90593 7.20402 9.04658 7.34467C9.18723 7.48532 9.26625 7.67609 9.26625 7.875C9.26625 8.07391 9.18723 8.26468 9.04658 8.40533C8.90593 8.54598 8.71516 8.625 8.51625 8.625ZM8.51625 12.75H1.5C1.30109 12.75 1.11032 12.671 0.96967 12.5303C0.829018 12.3897 0.75 12.1989 0.75 12C0.75 11.8011 0.829018 11.6103 0.96967 11.4697C1.11032 11.329 1.30109 11.25 1.5 11.25H8.51625C8.71516 11.25 8.90593 11.329 9.04658 11.4697C9.18723 11.6103 9.26625 11.8011 9.26625 12C9.26625 12.1989 9.18723 12.3897 9.04658 12.5303C8.90593 12.671 8.71516 12.75 8.51625 12.75ZM8.51625 16.875H1.5C1.30109 16.875 1.11032 16.796 0.96967 16.6553C0.829018 16.5147 0.75 16.3239 0.75 16.125C0.75 15.9261 0.829018 15.7353 0.96967 15.5947C1.11032 15.454 1.30109 15.375 1.5 15.375H8.51625C8.71516 15.375 8.90593 15.454 9.04658 15.5947C9.18723 15.7353 9.26625 15.9261 9.26625 16.125C9.26625 16.3239 9.18723 16.5147 9.04658 16.6553C8.90593 16.796 8.71516 16.875 8.51625 16.875ZM16.7887 21H1.5C1.30109 21 1.11032 20.921 0.96967 20.7803C0.829018 20.6397 0.75 20.4489 0.75 20.25C0.75 20.0511 0.829018 19.8603 0.96967 19.7197C1.11032 19.579 1.30109 19.5 1.5 19.5H16.7887C16.9877 19.5 17.1784 19.579 17.3191 19.7197C17.4597 19.8603 17.5387 20.0511 17.5387 20.25C17.5387 20.4489 17.4597 20.6397 17.3191 20.7803C17.1784 20.921 16.9877 21 16.7887 21ZM22.5 18.3502C22.4015 18.3504 22.3039 18.331 22.213 18.2933C22.122 18.2556 22.0393 18.2002 21.9697 18.1305L19.1257 15.2865C19.0541 15.2173 18.997 15.1346 18.9577 15.0431C18.9184 14.9515 18.8977 14.8531 18.8968 14.7536C18.8959 14.654 18.9149 14.5552 18.9526 14.463C18.9903 14.3709 19.046 14.2871 19.1165 14.2167C19.1869 14.1463 19.2706 14.0906 19.3628 14.0529C19.455 14.0152 19.5537 13.9962 19.6533 13.9971C19.7529 13.9979 19.8513 14.0186 19.9428 14.0579C20.0343 14.0972 20.1171 14.1544 20.1863 14.226L23.0303 17.07C23.1351 17.1749 23.2065 17.3085 23.2354 17.454C23.2644 17.5994 23.2495 17.7502 23.1928 17.8872C23.136 18.0243 23.0399 18.1414 22.9166 18.2238C22.7933 18.3062 22.6483 18.3502 22.5 18.3502Z" fill="#A63C24"/>
<path d="M16.1951 16.9367C15.4538 16.9383 14.7196 16.7934 14.0346 16.5102C13.3495 16.227 12.7273 15.8112 12.2036 15.2867C11.1378 14.2202 10.5498 12.8027 10.5498 11.2952C10.5498 9.78765 11.1378 8.37015 12.2036 7.30365C13.2693 6.23715 14.6868 5.6499 16.1951 5.6499C17.7033 5.6499 19.1201 6.23715 20.1866 7.30365C21.2531 8.3694 21.8403 9.78615 21.8403 11.2952C21.8403 12.8042 21.2531 14.2202 20.1866 15.2867C19.6626 15.8109 19.0403 16.2265 18.3553 16.5096C17.6704 16.7928 16.9362 16.9379 16.1951 16.9367ZM16.1951 7.1499C15.0881 7.1499 14.0471 7.58115 13.2648 8.3649C12.4826 9.14865 12.0498 10.1882 12.0498 11.2952C12.0484 11.8398 12.1551 12.3793 12.3636 12.8824C12.5722 13.3855 12.8785 13.8422 13.2648 14.2262C14.0427 15.0021 15.0967 15.4379 16.1954 15.4379C17.2942 15.4379 18.3481 15.0021 19.1261 14.2262C19.5124 13.8422 19.8187 13.3855 20.0272 12.8824C20.2358 12.3793 20.3424 11.8398 20.3411 11.2952C20.3424 10.7505 20.2358 10.211 20.0272 9.70792C19.8187 9.20481 19.5124 8.74807 19.1261 8.36415C18.7421 7.97799 18.2853 7.67183 17.7822 7.4634C17.2791 7.25497 16.7396 7.14842 16.1951 7.1499Z" fill="#A63C24"/>
</svg>
