<svg width="30" height="30" viewBox="0 0 30 30" fill="none" xmlns="http://www.w3.org/2000/svg">
<path fill-rule="evenodd" clip-rule="evenodd" d="M25.7676 7.06106C25.8922 7.17019 25.9939 7.30303 26.0668 7.45183C26.1397 7.60063 26.1822 7.76244 26.192 7.92783C26.2018 8.09323 26.1786 8.25892 26.1237 8.41527C26.0689 8.57161 25.9835 8.7155 25.8726 8.83855L12.7301 23.4248C12.6186 23.5483 12.4836 23.6484 12.3329 23.719C12.1823 23.7897 12.0191 23.8296 11.8528 23.8363C11.6866 23.8431 11.5206 23.8166 11.3648 23.7583C11.2089 23.7001 11.0662 23.6114 10.9451 23.4973L3.34007 16.3386C3.11192 16.1207 2.97378 15.8252 2.95295 15.5105C2.93212 15.1957 3.03011 14.8846 3.22757 14.6386C3.33415 14.5052 3.46672 14.3949 3.61724 14.3143C3.76776 14.2337 3.93308 14.1846 4.10317 14.1698C4.27326 14.1551 4.44457 14.1751 4.6067 14.2286C4.76883 14.2821 4.9184 14.368 5.04632 14.4811L10.9463 19.7886C11.1927 20.0103 11.517 20.1251 11.848 20.1077C12.179 20.0904 12.4895 19.9423 12.7113 19.6961L24.0151 7.1623C24.2351 6.91835 24.5423 6.77083 24.8703 6.75165C25.1983 6.73246 25.5206 6.84317 25.7676 7.0598V7.06106Z" fill="#A63C24"/>
</svg>
