<svg width="30" height="30" viewBox="0 0 30 30" fill="none" xmlns="http://www.w3.org/2000/svg">
<g clip-path="url(#clip0_17_484)">
<path d="M29.8745 18.3135L24.8201 9.88898L29.3561 8.62898C29.8239 8.49908 30.0977 8.01463 29.9678 7.54693C29.8378 7.07924 29.3533 6.80537 28.8857 6.93533L23.2472 8.50154L23.2459 8.50189L15.8789 10.5482V0.878906C15.8789 0.393516 15.4854 0 15 0C14.5146 0 14.1211 0.393516 14.1211 0.878906V11.0365L6.3022 13.2083L6.30097 13.2086L0.643922 14.78C0.176168 14.9099 -0.0975818 15.3943 0.032262 15.862C0.140367 16.251 0.493629 16.5059 0.87859 16.5059C0.958264 16.5059 1.03756 16.495 1.11431 16.4736L4.64084 15.4941L0.125602 23.0204C0.04366 23.157 0.000360593 23.3133 0.00032841 23.4725C0.00032841 27.0715 2.92843 29.9995 6.5275 29.9995C10.1267 29.9995 13.0547 27.0715 13.0547 23.4725C13.0547 23.3133 13.0114 23.157 12.9295 23.0204L7.87504 14.5958L21.5858 10.7873L17.0706 18.3135C16.9886 18.4501 16.9453 18.6064 16.9453 18.7657C16.9453 22.3648 19.8734 25.2928 23.4725 25.2928C25.2159 25.2928 26.855 24.6138 28.0879 23.381C29.3208 22.1481 29.9997 20.509 29.9996 18.7656C29.9997 18.6063 29.9564 18.4501 29.8745 18.3135ZM6.5275 28.2418C4.19798 28.2418 2.25408 26.5626 1.84023 24.3514H11.2148C10.801 26.5626 8.85707 28.2418 6.5275 28.2418ZM10.6237 22.5936H2.43144L6.5275 15.7662L10.6237 22.5936ZM23.4725 11.0595L27.5687 17.8867H19.3763L23.4725 11.0595ZM23.4726 23.535C21.1431 23.535 19.1991 21.8558 18.7852 19.6446H28.1599C27.746 21.8558 25.8021 23.535 23.4726 23.535Z" fill="#A63C24"/>
</g>
<defs>
<clipPath id="clip0_17_484">
<rect width="30" height="30" fill="white"/>
</clipPath>
</defs>
</svg>
