<svg width="24" height="24" viewBox="0 0 24 24" fill="none" xmlns="http://www.w3.org/2000/svg">
<path fill-rule="evenodd" clip-rule="evenodd" d="M9.35469 2C9.76554 2 10.0986 2.33306 10.0986 2.7439V4.64332H13.9014V2.7439C13.9014 2.33306 14.2345 2 14.6453 2C15.0562 2 15.3892 2.33306 15.3892 2.7439V4.64332H15.6362C17.6906 4.64332 19.3557 6.30846 19.3557 8.36282V8.61079H21.2561C21.6669 8.61079 22 8.94385 22 9.35469C22 9.76554 21.6669 10.0986 21.2561 10.0986H19.3557V13.9014H21.2561C21.6669 13.9014 22 14.2345 22 14.6453C22 15.0562 21.6669 15.3892 21.2561 15.3892H19.3557V15.6357C19.3557 15.6356 19.3557 15.6359 19.3557 15.6357C19.3567 17.6912 17.6915 19.3567 15.6372 19.3567H15.3892V21.2561C15.3892 21.6669 15.0562 22 14.6453 22C14.2345 22 13.9014 21.6669 13.9014 21.2561V19.3567H10.0986V21.2561C10.0986 21.6669 9.76554 22 9.35469 22C8.94385 22 8.61079 21.6669 8.61079 21.2561V19.3567H8.36282C6.30846 19.3567 4.64332 17.6915 4.64332 15.6372V15.3892H2.7439C2.33306 15.3892 2 15.0562 2 14.6453C2 14.2345 2.33306 13.9014 2.7439 13.9014H4.64332V10.0986H2.7439C2.33306 10.0986 2 9.76554 2 9.35469C2 8.94385 2.33306 8.61079 2.7439 8.61079H4.64332V8.36282C4.64332 6.30846 6.30846 4.64332 8.36282 4.64332H8.61079V2.7439C8.61079 2.33306 8.94385 2 9.35469 2ZM9.29995 6.13112H8.36282C7.13015 6.13112 6.13112 7.13015 6.13112 8.36282V9.29995C6.13244 9.31803 6.13311 9.33628 6.13311 9.35469C6.13311 9.3731 6.13244 9.39136 6.13112 9.40943V14.5906C6.13244 14.6086 6.13311 14.6269 6.13311 14.6453C6.13311 14.6637 6.13244 14.682 6.13112 14.7V15.6372C6.13112 16.8699 7.13015 17.8689 8.36282 17.8689H9.29996C9.31803 17.8676 9.33628 17.8669 9.35469 17.8669C9.3731 17.8669 9.39135 17.8676 9.40942 17.8689H14.5906C14.6087 17.8676 14.6269 17.8669 14.6453 17.8669C14.6637 17.8669 14.682 17.8676 14.7 17.8689H15.6372C16.8698 17.8689 17.8686 16.87 17.8679 15.6366V14.684C17.8672 14.6712 17.8669 14.6583 17.8669 14.6453C17.8669 14.6323 17.8672 14.6194 17.8679 14.6066V9.39343C17.8672 9.3806 17.8669 9.36768 17.8669 9.35469C17.8669 9.3417 17.8672 9.32878 17.8679 9.31595V8.36282C17.8679 7.13015 16.8689 6.13112 15.6362 6.13112H14.7C14.682 6.13244 14.6637 6.13311 14.6453 6.13311C14.6269 6.13311 14.6086 6.13244 14.5906 6.13112H9.40943C9.39136 6.13244 9.3731 6.13311 9.35469 6.13311C9.33628 6.13311 9.31803 6.13244 9.29995 6.13112ZM8.61079 9.35469C8.61079 8.94385 8.94385 8.61079 9.35469 8.61079H14.6443C15.0552 8.61079 15.3882 8.94385 15.3882 9.35469V14.6443C15.3882 15.0552 15.0552 15.3882 14.6443 15.3882H9.35469C8.94385 15.3882 8.61079 15.0552 8.61079 14.6443V9.35469ZM10.0986 10.0986V13.9004H13.9004V10.0986H10.0986Z" fill="#A63C24"/>
</svg>
