<svg width="24" height="24" viewBox="0 0 24 24" fill="none" xmlns="http://www.w3.org/2000/svg">
<path d="M12 11.1075L21.585 4.95C21.1997 4.66096 20.7317 4.50323 20.25 4.5H3.75004C3.26834 4.50323 2.8004 4.66096 2.41504 4.95L12 11.1075Z" fill="#A63C24"/>
<path d="M12.405 12.6298L12.2775 12.6898H12.2175C12.1484 12.7207 12.0751 12.7409 12 12.7498C11.9377 12.7577 11.8748 12.7577 11.8125 12.7498H11.7525L11.625 12.6898L1.575 6.19482C1.52698 6.37598 1.50179 6.56242 1.5 6.74982V17.2498C1.5 17.8466 1.73705 18.4189 2.15901 18.8408C2.58097 19.2628 3.15326 19.4998 3.75 19.4998H20.25C20.8467 19.4998 21.419 19.2628 21.841 18.8408C22.2629 18.4189 22.5 17.8466 22.5 17.2498V6.74982C22.4982 6.56242 22.473 6.37598 22.425 6.19482L12.405 12.6298Z" fill="#A63C24"/>
</svg>
