<svg width="24" height="24" viewBox="0 0 24 24" fill="none" xmlns="http://www.w3.org/2000/svg">
<path d="M12 2C9.879 2.00238 7.84555 2.846 6.34578 4.34578C4.846 5.84555 4.00238 7.879 4 10C4 13.255 6.363 15.958 8.866 18.819C9.658 19.725 10.478 20.662 11.208 21.61C11.3014 21.7312 11.4214 21.8293 11.5587 21.8968C11.696 21.9644 11.847 21.9995 12 21.9995C12.153 21.9995 12.304 21.9644 12.4413 21.8968C12.5786 21.8293 12.6986 21.7312 12.792 21.61C13.522 20.662 14.342 19.725 15.134 18.819C17.637 15.958 20 13.255 20 10C19.9976 7.879 19.154 5.84555 17.6542 4.34578C16.1544 2.846 14.121 2.00238 12 2ZM12 13C11.4067 13 10.8266 12.8241 10.3333 12.4944C9.83994 12.1648 9.45542 11.6962 9.22836 11.1481C9.0013 10.5999 8.94189 9.99667 9.05764 9.41473C9.1734 8.83279 9.45912 8.29824 9.87868 7.87868C10.2982 7.45912 10.8328 7.1734 11.4147 7.05764C11.9967 6.94189 12.5999 7.0013 13.1481 7.22836C13.6962 7.45542 14.1648 7.83994 14.4944 8.33329C14.8241 8.82664 15 9.40666 15 10C15 10.7956 14.6839 11.5587 14.1213 12.1213C13.5587 12.6839 12.7956 13 12 13Z" fill="#A63C24"/>
</svg>
