<svg width="24" height="24" viewBox="0 0 24 24" fill="none" xmlns="http://www.w3.org/2000/svg">
<path fill-rule="evenodd" clip-rule="evenodd" d="M6.19922 2.97656C6.61343 2.97656 6.94922 3.31235 6.94922 3.72656V10.0312H17.0508V3.72656C17.0508 3.31235 17.3866 2.97656 17.8008 2.97656C18.215 2.97656 18.5508 3.31235 18.5508 3.72656V10.0374C20.5216 10.1492 22.085 11.7825 22.085 13.7812V14.4462C22.0837 16.517 20.4053 18.1962 18.334 18.1962H5.66797C3.59675 18.1962 1.91797 16.5175 1.91797 14.4462V13.7812C1.91797 11.7835 3.47983 10.1508 5.44922 10.0375V3.72656C5.44922 3.31235 5.78501 2.97656 6.19922 2.97656ZM6.13988 11.5312H5.66797C4.42518 11.5312 3.41797 12.5385 3.41797 13.7812V14.4462C3.41797 15.689 4.42518 16.6962 5.66797 16.6962H18.334C19.5767 16.6962 20.5842 15.689 20.585 14.4458V13.7812C20.585 12.5385 19.5778 11.5312 18.335 11.5312H17.8601C17.8405 11.5328 17.8208 11.5336 17.8008 11.5336C17.7808 11.5336 17.761 11.5328 17.7414 11.5312H6.25855C6.23898 11.5328 6.21919 11.5336 6.19922 11.5336C6.17925 11.5336 6.15946 11.5328 6.13988 11.5312ZM17.1584 13.7197C17.3758 13.3671 17.8378 13.2575 18.1904 13.4748L18.1925 13.4761C18.5451 13.6935 18.6548 14.1555 18.4374 14.5081C18.2201 14.8607 17.758 14.9704 17.4054 14.753L17.4033 14.7517C17.0507 14.5344 16.9411 14.0723 17.1584 13.7197ZM5.78516 14.1172C5.78516 13.703 6.12094 13.3672 6.53516 13.3672H10.5652C10.9794 13.3672 11.3152 13.703 11.3152 14.1172C11.3152 14.5314 10.9794 14.8672 10.5652 14.8672H6.53516C6.12094 14.8672 5.78516 14.5314 5.78516 14.1172ZM4.58203 20.1133C4.58203 19.6991 4.91782 19.3633 5.33203 19.3633H7.06503C7.47924 19.3633 7.81503 19.6991 7.81503 20.1133C7.81503 20.5275 7.47924 20.8633 7.06503 20.8633H5.33203C4.91782 20.8633 4.58203 20.5275 4.58203 20.1133ZM16.1836 20.1133C16.1836 19.6991 16.5194 19.3633 16.9336 19.3633H18.6666C19.0808 19.3633 19.4166 19.6991 19.4166 20.1133C19.4166 20.5275 19.0808 20.8633 18.6666 20.8633H16.9336C16.5194 20.8633 16.1836 20.5275 16.1836 20.1133Z" fill="#A63C24"/>
</svg>
