<svg width="24" height="24" viewBox="0 0 24 24" fill="none" xmlns="http://www.w3.org/2000/svg">
<path fill-rule="evenodd" clip-rule="evenodd" d="M4.77403 10.9831C4.77403 7.56014 7.56014 4.77403 10.9831 4.77403C14.4061 4.77403 17.1922 7.56014 17.1922 10.9831C17.1922 14.4061 14.4061 17.1922 10.9831 17.1922C7.56014 17.1922 4.77403 14.4061 4.77403 10.9831ZM20.7403 20.7403C20.9066 20.574 21 20.3484 21 20.1132C21 19.878 20.9066 19.6524 20.7403 19.4861L17.2144 15.9602C18.3488 14.5495 18.967 12.7934 18.9663 10.9831C18.9663 6.58088 15.3854 3 10.9831 3C6.58088 3 3 6.58088 3 10.9831C3 15.3854 6.58088 18.9663 10.9831 18.9663C12.7934 18.967 14.5495 18.3488 15.9602 17.2144L19.4861 20.7403C19.6524 20.9066 19.878 21 20.1132 21C20.3484 21 20.574 20.9066 20.7403 20.7403Z" fill="#A63C24"/>
</svg>
