<svg width="24" height="24" viewBox="0 0 24 24" fill="none" xmlns="http://www.w3.org/2000/svg">
<path d="M20.2541 16.3072L18.4511 14.5042C18.1248 14.178 17.7161 13.9464 17.2685 13.8342C16.8209 13.7221 16.3513 13.7335 15.9097 13.8673C15.4681 14.0012 15.0712 14.2524 14.7612 14.5942C14.4512 14.9359 14.2398 15.3555 14.1495 15.808C11.1764 15.252 8.28476 12.3723 8.10478 9.7983C8.6103 9.70511 9.07557 9.46052 9.43894 9.09693C9.91697 8.61878 10.1855 7.97035 10.1855 7.29424C10.1855 6.61812 9.91697 5.96969 9.43894 5.49154L7.63651 3.68911C7.15845 3.21111 6.5101 2.94258 5.83407 2.94258C5.15804 2.94258 4.50969 3.21111 4.03164 3.68911C-1.37567 9.09693 14.8468 25.3194 20.2541 19.9115C20.732 19.4336 21.0005 18.7853 21.0005 18.1094C21.0005 17.4334 20.732 16.7852 20.2541 16.3072Z" fill="#A63C24"/>
</svg>
