<svg width="25" height="24" viewBox="0 0 25 24" fill="none" xmlns="http://www.w3.org/2000/svg">
<path fill-rule="evenodd" clip-rule="evenodd" d="M0.977539 3H1.72753H14.2592C15.1005 3 15.8536 3.37779 16.358 3.97297H19.1564C20.3023 3.97297 21.2812 4.68785 21.6715 5.69595H24.0045C24.5419 5.69595 24.9775 6.13156 24.9775 6.66892C24.9775 7.20628 24.5419 7.64189 24.0045 7.64189H21.6715C21.2812 8.64998 20.3023 9.36487 19.1564 9.36487H16.8898C16.5459 10.4914 15.4982 11.3108 14.2592 11.3108H14.1021V12.4527C14.1021 13.9715 12.8709 15.2027 11.3521 15.2027H9.25828V20.2905V21.0405H8.50828H5.66438C4.1456 21.0405 2.91438 19.8093 2.91438 18.2905V11.1886C1.79256 10.8419 0.977539 9.79652 0.977539 8.56081V3.75V3ZM17.0092 5.75V7.86487H19.1564C19.8169 7.86487 20.3524 7.32942 20.3524 6.66892C20.3524 6.00842 19.8169 5.47297 19.1564 5.47297H17.0085V5.68725C17.009 5.70811 17.0092 5.72903 17.0092 5.75ZM14.2592 4.5C14.9354 4.5 15.4862 5.03692 15.5085 5.70768V8.60313C15.4862 9.27389 14.9354 9.81081 14.2592 9.81081H14.1021H13.3521H9.25828H8.50828H7.75828H3.72753C3.03718 9.81081 2.47753 9.25117 2.47753 8.56081V4.5H14.2592ZM9.25828 11.3108H12.6021V12.4527C12.6021 13.1431 12.0425 13.7027 11.3521 13.7027H9.25828V11.3108ZM4.41438 11.3108H7.75828V19.5405H5.66438C4.97402 19.5405 4.41438 18.9809 4.41438 18.2905V11.3108ZM13.5943 4.96622H10.688V6.42568H13.5943V4.96622Z" fill="#A63C24"/>
</svg>
