<svg width="24" height="24" viewBox="0 0 24 24" fill="none" xmlns="http://www.w3.org/2000/svg">
<path d="M20.4375 2.8125H16.9219V2.10938C16.9219 0.946266 15.9756 0 14.8125 0H9.1875C8.02439 0 7.07812 0.946266 7.07812 2.10938V2.8125H3.5625C2.39939 2.8125 1.45312 3.75877 1.45312 4.92188C1.45312 5.856 2.06367 6.64973 2.90648 6.9263L4.16062 22.0658C4.25095 23.1504 5.1743 24 6.26269 24H17.7373C18.8258 24 19.7491 23.1504 19.8395 22.0654L21.0935 6.92625C21.9363 6.64973 22.5469 5.856 22.5469 4.92188C22.5469 3.75877 21.6006 2.8125 20.4375 2.8125ZM8.48438 2.10938C8.48438 1.72167 8.7998 1.40625 9.1875 1.40625H14.8125C15.2002 1.40625 15.5156 1.72167 15.5156 2.10938V2.8125H8.48438V2.10938ZM18.438 21.949C18.4079 22.3105 18.1001 22.5938 17.7373 22.5938H6.26269C5.89992 22.5938 5.59214 22.3105 5.56209 21.9494L4.32628 7.03125H19.6737L18.438 21.949ZM20.4375 5.625H3.5625C3.1748 5.625 2.85938 5.30958 2.85938 4.92188C2.85938 4.53417 3.1748 4.21875 3.5625 4.21875H20.4375C20.8252 4.21875 21.1406 4.53417 21.1406 4.92188C21.1406 5.30958 20.8252 5.625 20.4375 5.625Z" fill="#A63C24"/>
<path d="M9.1862 20.4409L8.48307 9.09715C8.45902 8.70954 8.12354 8.41474 7.73781 8.43888C7.3502 8.46293 7.05549 8.79659 7.07949 9.18415L7.78262 20.5279C7.80573 20.9007 8.11529 21.1876 8.48373 21.1876C8.89093 21.1876 9.21118 20.8446 9.1862 20.4409ZM12.0001 8.43757C11.6117 8.43757 11.2969 8.75238 11.2969 9.1407V20.4844C11.2969 20.8728 11.6117 21.1876 12.0001 21.1876C12.3884 21.1876 12.7032 20.8728 12.7032 20.4844V9.1407C12.7032 8.75238 12.3884 8.43757 12.0001 8.43757ZM16.2623 8.43893C15.8755 8.41488 15.541 8.70959 15.517 9.0972L14.8139 20.4409C14.7899 20.8285 15.0846 21.1622 15.4722 21.1862C15.86 21.2102 16.1934 20.9154 16.2174 20.5279L16.9206 9.1842C16.9446 8.79659 16.6499 8.46293 16.2623 8.43893Z" fill="#A63C24"/>
</svg>
