<svg width="24" height="24" viewBox="0 0 24 24" fill="none" xmlns="http://www.w3.org/2000/svg">
<path fill-rule="evenodd" clip-rule="evenodd" d="M10.18 1.85376C8.93463 1.26264 7.52875 1.09984 6.18124 1.39072C4.83372 1.6816 3.62018 2.40983 2.72953 3.46205C1.83889 4.51426 1.32111 5.83142 1.25681 7.20847C1.1925 8.58552 1.58528 9.9452 2.374 11.0758C3.16271 12.2065 4.30311 13.0446 5.61765 13.4598C6.9322 13.875 8.34713 13.8439 9.64218 13.3714C10.9372 12.8989 12.0397 12.0115 12.778 10.8474C12.9999 10.4976 12.8962 10.0341 12.5464 9.81231L9.01167 7.5706L12.7399 5.66804C13.1088 5.47976 13.2553 5.02803 13.067 4.65908C12.4404 3.43118 11.4254 2.44489 10.18 1.85376ZM6.49774 2.85695C7.52185 2.63588 8.59032 2.75961 9.53681 3.20886C10.2552 3.54987 10.8728 4.06391 11.337 4.69994L7.15909 6.83196C6.91921 6.95438 6.76338 7.19601 6.75082 7.46502C6.73826 7.73404 6.87089 7.98914 7.09832 8.13337L11.0593 10.6454C10.5379 11.2355 9.87514 11.6897 9.12806 11.9623C8.14382 12.3214 7.06847 12.345 6.06942 12.0295C5.07036 11.7139 4.20366 11.0769 3.60424 10.2176C3.00481 9.35835 2.7063 8.325 2.75517 7.27844C2.80404 6.23188 3.19756 5.23084 3.87445 4.43116C4.55134 3.63147 5.47363 3.07802 6.49774 2.85695ZM15.5 2.25C15.0858 2.25 14.75 2.58579 14.75 3C14.75 3.41421 15.0858 3.75 15.5 3.75H21.25V5C21.25 5.41421 21.5858 5.75 22 5.75C22.4142 5.75 22.75 5.41421 22.75 5V3C22.75 2.58579 22.4142 2.25 22 2.25H15.5ZM22.75 12C22.75 11.5858 22.4142 11.25 22 11.25C21.5858 11.25 21.25 11.5858 21.25 12V16.25H15H9H2.75V14C2.75 13.5858 2.41422 13.25 2 13.25C1.58579 13.25 1.25 13.5858 1.25 14V17C1.25 17.4142 1.58579 17.75 2 17.75H8.25V20.25H6C5.58579 20.25 5.25 20.5858 5.25 21C5.25 21.4142 5.58579 21.75 6 21.75H9H15H18C18.4142 21.75 18.75 21.4142 18.75 21C18.75 20.5858 18.4142 20.25 18 20.25H15.75V17.75H22C22.4142 17.75 22.75 17.4142 22.75 17V12ZM14.25 20.25H9.75V17.75H14.25V20.25ZM8 5C8 5.55228 7.55229 6 7 6C6.44772 6 6 5.55228 6 5C6 4.44772 6.44772 4 7 4C7.55229 4 8 4.44772 8 5ZM15 8C15 8.55228 14.5523 9 14 9C13.4477 9 13 8.55228 13 8C13 7.44772 13.4477 7 14 7C14.5523 7 15 7.44772 15 8ZM18 9C18.5523 9 19 8.55228 19 8C19 7.44772 18.5523 7 18 7C17.4477 7 17 7.44772 17 8C17 8.55228 17.4477 9 18 9ZM23 8C23 8.55228 22.5523 9 22 9C21.4477 9 21 8.55228 21 8C21 7.44772 21.4477 7 22 7C22.5523 7 23 7.44772 23 8Z" fill="#A63C24"/>
</svg>
