<svg width="30" height="30" viewBox="0 0 30 30" fill="none" xmlns="http://www.w3.org/2000/svg">
<path fill-rule="evenodd" clip-rule="evenodd" d="M11.6675 18.71L11.4075 18.7538C8.99875 19.15 7.1875 21.31 7.1875 23.89C7.1875 24.7038 7.81875 25.3125 8.535 25.3125H21.465C22.1813 25.3125 22.8125 24.7038 22.8125 23.8888C22.8125 21.31 21.0013 19.1513 18.5925 18.7538L18.3325 18.71C16.1257 18.346 13.8743 18.346 11.6675 18.71ZM18.6375 16.86L18.8975 16.9038C22.255 17.4575 24.6875 20.4363 24.6875 23.89C24.6875 25.6825 23.2738 27.1875 21.465 27.1875H8.535C6.72625 27.1875 5.3125 25.6825 5.3125 23.8888C5.3125 20.4363 7.745 17.4563 11.1025 16.9038L11.3625 16.86C13.7712 16.4627 16.2288 16.4627 18.6375 16.86Z" fill="#A63C24"/>
<path fill-rule="evenodd" clip-rule="evenodd" d="M15.0002 4.6875C12.6665 4.6875 10.834 6.50375 10.834 8.6725C10.834 10.8413 12.6665 12.6562 15.0002 12.6562C17.334 12.6562 19.1665 10.84 19.1665 8.67125C19.1665 6.5025 17.334 4.6875 15.0002 4.6875ZM8.95898 8.6725C8.95898 5.40375 11.6965 2.8125 15.0002 2.8125C18.304 2.8125 21.0415 5.40375 21.0415 8.6725C21.0415 11.9412 18.304 14.5312 15.0002 14.5312C11.6965 14.5312 8.95898 11.94 8.95898 8.67125V8.6725Z" fill="#A63C24"/>
</svg>
