<svg width="30" height="30" viewBox="0 0 30 30" fill="none" xmlns="http://www.w3.org/2000/svg">
<g clip-path="url(#clip0_17_492)">
<path d="M29.841 21.8998C29.8046 21.8216 29.7708 21.7566 29.7393 21.7046C29.2188 20.7672 28.2242 19.6165 26.7559 18.2524L26.7249 18.2211L26.7094 18.2058L26.6937 18.1901H26.6779C26.0116 17.5549 25.5896 17.1278 25.4129 16.9091C25.0896 16.4925 25.0171 16.0709 25.1938 15.6437C25.3187 15.3209 25.7876 14.6392 26.5996 13.5977C27.0267 13.0458 27.365 12.6034 27.6148 12.2701C29.4164 9.87496 30.1975 8.34443 29.9579 7.67791L29.8648 7.52215C29.8023 7.42838 29.6409 7.3426 29.3809 7.26437C29.1202 7.1863 28.7871 7.17339 28.3809 7.22541L23.8825 7.25649C23.8096 7.23067 23.7056 7.23307 23.57 7.26437L23.3669 7.31136L23.2886 7.35048L23.2265 7.39747C23.1744 7.42855 23.1171 7.4832 23.0546 7.56133C22.9924 7.63918 22.9403 7.73054 22.8987 7.83465C22.409 9.09465 21.8522 10.2661 21.2272 11.349C20.8419 11.9948 20.4881 12.5544 20.1649 13.0282C19.8422 13.5019 19.5714 13.8509 19.3529 14.0746C19.1341 14.2985 18.9366 14.4779 18.7592 14.6134C18.5821 14.749 18.4469 14.8062 18.3533 14.7853C18.2595 14.7643 18.1711 14.7435 18.0875 14.7228C17.9418 14.629 17.8246 14.5015 17.7363 14.3401C17.6475 14.1787 17.5878 13.9755 17.5565 13.7308C17.5255 13.486 17.5071 13.2753 17.5018 13.0982C17.497 12.9214 17.4992 12.6712 17.5098 12.3484C17.5206 12.0255 17.5255 11.8069 17.5255 11.6924C17.5255 11.2966 17.5332 10.8671 17.5487 10.4037C17.5644 9.94034 17.5772 9.57319 17.5878 9.30271C17.5984 9.03195 17.6034 8.7455 17.6034 8.4435C17.6034 8.14151 17.585 7.90468 17.5487 7.73278C17.5124 7.56073 17.4575 7.39313 17.3851 7.23291C17.312 7.07152 17.2051 6.94667 17.0649 6.85804C16.9243 6.76952 16.7496 6.69928 16.5416 6.64709C15.9897 6.52219 15.2868 6.45462 14.4328 6.44412C12.496 6.42333 11.2516 6.54839 10.6997 6.81915C10.481 6.93354 10.2831 7.08984 10.1062 7.28756C9.9187 7.51674 9.89255 7.6418 10.0279 7.66237C10.6528 7.75598 11.0952 7.9799 11.3555 8.33392L11.4493 8.52152C11.5223 8.65687 11.5952 8.89649 11.6681 9.24006C11.7409 9.58364 11.7879 9.9637 11.8086 10.38C11.8606 11.1403 11.8606 11.7911 11.8086 12.3325C11.7565 12.8742 11.7072 13.2958 11.6602 13.5978C11.6133 13.8998 11.543 14.1445 11.4493 14.3319C11.3555 14.5193 11.2931 14.6339 11.2618 14.6754C11.2306 14.717 11.2045 14.7432 11.1838 14.7535C11.0493 14.8054 10.9063 14.8319 10.762 14.8318C10.6161 14.8318 10.4392 14.7588 10.231 14.613C10.0228 14.4671 9.80677 14.2668 9.58285 14.0116C9.35892 13.7564 9.10639 13.3997 8.82513 12.9416C8.54409 12.4835 8.25249 11.942 7.9505 11.3172L7.70064 10.8641C7.54445 10.5727 7.33109 10.1482 7.06033 9.59124C6.78941 9.03403 6.54995 8.49504 6.34179 7.97438C6.25858 7.75571 6.13357 7.58923 5.96698 7.47467L5.8888 7.42767C5.83683 7.38609 5.75339 7.34194 5.63894 7.29489C5.52339 7.24766 5.40287 7.21364 5.27967 7.19346L0.999858 7.22454C0.562516 7.22454 0.265775 7.32362 0.109527 7.5215L0.0469949 7.6151C0.0157561 7.66724 0 7.75051 0 7.86512C0 7.97968 0.0312387 8.12028 0.0937709 8.28676C0.718545 9.75515 1.39797 11.1713 2.13206 12.5354C2.86614 13.8995 3.50404 14.9983 4.04539 15.8309C4.58684 16.664 5.13874 17.4504 5.70109 18.1895C6.26344 18.9289 6.63568 19.4027 6.81781 19.6109C7.00015 19.8194 7.14338 19.9753 7.24749 20.0795L7.63806 20.4543C7.88797 20.7042 8.25495 21.0036 8.73918 21.3524C9.22352 21.7014 9.75972 22.0449 10.3481 22.3836C10.9365 22.7218 11.6211 22.9977 12.4022 23.2112C13.1831 23.4248 13.9432 23.5105 14.6826 23.4692H16.4789C16.8432 23.4377 17.1193 23.3231 17.3069 23.1254L17.369 23.0471C17.4108 22.985 17.4499 22.8884 17.486 22.7585C17.5226 22.6283 17.5407 22.485 17.5407 22.329C17.5301 21.8813 17.5641 21.4778 17.6421 21.1186C17.7199 20.7595 17.8086 20.4887 17.9079 20.3064C18.0071 20.1242 18.119 19.9705 18.2436 19.8459C18.3684 19.721 18.4574 19.6453 18.5096 19.6193C18.5614 19.593 18.6028 19.5753 18.6341 19.5646C18.884 19.4813 19.1781 19.562 19.5169 19.8069C19.8554 20.0516 20.1728 20.3538 20.4698 20.7129C20.7666 21.0723 21.1232 21.4756 21.5396 21.9233C21.9563 22.3711 22.3207 22.704 22.633 22.923L22.9452 23.1104C23.1538 23.2355 23.4246 23.3501 23.7578 23.4542C24.0905 23.5582 24.382 23.5843 24.6323 23.5322L28.6308 23.4699C29.0263 23.4699 29.334 23.4044 29.5523 23.2745C29.771 23.1443 29.901 23.0009 29.9429 22.8449C29.9847 22.6888 29.9869 22.5116 29.9508 22.3136C29.9138 22.116 29.8773 21.9779 29.841 21.8998Z" fill="#A63C24"/>
</g>
<defs>
<clipPath id="clip0_17_492">
<rect width="30" height="30" fill="white"/>
</clipPath>
</defs>
</svg>
