<svg width="30" height="30" viewBox="0 0 30 30" fill="none" xmlns="http://www.w3.org/2000/svg">
<g clip-path="url(#clip0_17_494)">
<path d="M29.5818 7.85209C29.4243 6.53846 28.1863 5.27882 26.8911 5.11007C18.9944 4.12868 11.0066 4.12868 3.10998 5.11007C1.81364 5.27845 0.575677 6.53846 0.418203 7.85209C-0.139401 12.6665 -0.139401 17.3345 0.418203 22.1478C0.575677 23.4614 1.81364 24.7222 3.10998 24.8898C11.0066 25.8712 18.9944 25.8712 26.8911 24.8898C28.1863 24.7225 29.4243 23.4614 29.5818 22.1478C30.1394 17.3349 30.1394 12.6665 29.5818 7.85209ZM12.4998 20.0009V10.0005L20 15.0009L12.4998 20.0009Z" fill="#A63C24"/>
</g>
<defs>
<clipPath id="clip0_17_494">
<rect width="30" height="30" fill="white"/>
</clipPath>
</defs>
</svg>
