<svg width="20" height="20" viewBox="0 0 20 20" fill="none" xmlns="http://www.w3.org/2000/svg">
<path d="M16.875 3.75V16.25C16.875 16.5815 16.7433 16.8995 16.5089 17.1339C16.2745 17.3683 15.9565 17.5 15.625 17.5H12.8125C12.481 17.5 12.163 17.3683 11.9286 17.1339C11.6942 16.8995 11.5625 16.5815 11.5625 16.25V3.75C11.5625 3.41848 11.6942 3.10054 11.9286 2.86612C12.163 2.6317 12.481 2.5 12.8125 2.5H15.625C15.9565 2.5 16.2745 2.6317 16.5089 2.86612C16.7433 3.10054 16.875 3.41848 16.875 3.75ZM7.1875 2.5H4.375C4.04348 2.5 3.72554 2.6317 3.49112 2.86612C3.2567 3.10054 3.125 3.41848 3.125 3.75V16.25C3.125 16.5815 3.2567 16.8995 3.49112 17.1339C3.72554 17.3683 4.04348 17.5 4.375 17.5H7.1875C7.51902 17.5 7.83696 17.3683 8.07138 17.1339C8.3058 16.8995 8.4375 16.5815 8.4375 16.25V3.75C8.4375 3.41848 8.3058 3.10054 8.07138 2.86612C7.83696 2.6317 7.51902 2.5 7.1875 2.5Z" fill="#433C86"/>
</svg>
