<svg width="20" height="20" viewBox="0 0 20 20" fill="none" xmlns="http://www.w3.org/2000/svg">
<path d="M18.1484 8.93027L6.89844 2.06309C6.71105 1.94433 6.49463 1.87934 6.27282 1.87521C6.05101 1.87108 5.83232 1.92796 5.64063 2.03965C5.44611 2.14637 5.28395 2.30355 5.17121 2.49465C5.05848 2.68576 4.99933 2.90371 5.00001 3.12559V16.8756C4.99933 17.0975 5.05848 17.3154 5.17121 17.5065C5.28395 17.6976 5.44611 17.8548 5.64063 17.9615C5.83232 18.0732 6.05101 18.1301 6.27282 18.126C6.49463 18.1218 6.71105 18.0568 6.89844 17.9381L18.1484 11.0709C18.3328 10.9597 18.4854 10.8027 18.5912 10.6151C18.6971 10.4276 18.7527 10.2159 18.7527 10.0006C18.7527 9.78524 18.6971 9.57354 18.5912 9.38602C18.4854 9.1985 18.3328 9.04151 18.1484 8.93027Z" fill="#433C86"/>
</svg>
